<?xml version="1.0" encoding="utf-8"?>
<!-- Generator: Adobe Illustrator 24.1.2, SVG Export Plug-In . SVG Version: 6.00 Build 0)  -->
<svg version="1.1" id="Layer_1" xmlns:sketch="http://www.bohemiancoding.com/sketch/ns"
	 xmlns="http://www.w3.org/2000/svg" xmlns:xlink="http://www.w3.org/1999/xlink" x="0px" y="0px" viewBox="0 0 24 24"
	 style="enable-background:new 0 0 24 24;" xml:space="preserve">
<style type="text/css">
	.st0{fill-rule:evenodd;clip-rule:evenodd;fill:#71B5AC;}
</style>
<desc></desc>
<g id="miu">
	<g id="Artboard-1" transform="translate(-251.000000, -659.000000)">
		<g id="slice" transform="translate(215.000000, 119.000000)">
		</g>
		<path id="circle-social-twitter-glyph" class="st0" d="M263,683c6.6,0,12-5.4,12-12s-5.4-12-12-12s-12,5.4-12,12
			S256.4,683,263,683z M267.4,666.4c-0.5-0.5-1.2-0.9-1.9-0.9c-1.5,0-2.7,1.2-2.7,2.8c0,0.2,0,0.4,0.1,0.6c-2.2-0.1-4.2-1.3-5.5-3
			c-0.2,0.4-0.4,0.9-0.4,1.4c0,1,0.5,1.9,1.2,2.4c-0.4,0-0.8-0.2-1.2-0.4c0,0,0,0,0,0c0,1.4,0.9,2.5,2.1,2.8
			c-0.2,0.1-0.5,0.1-0.7,0.1c-0.2,0-0.3,0-0.5-0.1c0.3,1.1,1.3,1.9,2.5,2c-0.9,0.8-2.1,1.2-3.3,1.2c-0.2,0-0.4,0-0.6,0
			c1.2,0.8,2.6,1.3,4.1,1.3c4.9,0,7.5-4.2,7.5-7.9c0-0.1,0-0.2,0-0.4c0.5-0.4,1-0.9,1.3-1.4c-0.5,0.2-1,0.4-1.5,0.4
			c0.5-0.3,1-0.9,1.2-1.5C268.6,666,268,666.3,267.4,666.4z"/>
	</g>
</g>
</svg>
