<?xml version="1.0" encoding="utf-8"?>
<!-- Generator: Adobe Illustrator 24.1.2, SVG Export Plug-In . SVG Version: 6.00 Build 0)  -->
<svg version="1.1" id="Layer_1" xmlns="http://www.w3.org/2000/svg" xmlns:xlink="http://www.w3.org/1999/xlink" x="0px" y="0px"
	 viewBox="0 0 128 128" style="enable-background:new 0 0 128 128;" xml:space="preserve">
<style type="text/css">
	.st0{fill:#71B5AC;}
	.st1{fill:#FFFFFF;}
</style>
<circle class="st0" cx="64" cy="64" r="64"/>
<g>
	<path class="st1" d="M92.3,35.5C84.8,28,74.8,23.8,64.2,23.8c-22,0-39.8,17.9-39.8,39.8c0,7,1.8,13.9,5.3,19.9L24,104.2l21.1-5.5
		c5.8,3.2,12.4,4.8,19,4.8h0l0,0c22,0,39.8-17.9,39.8-39.8C104,53,99.9,43,92.3,35.5 M64.2,96.8L64.2,96.8c-6,0-11.8-1.6-16.9-4.6
		l-1.2-0.7l-12.5,3.3l3.3-12.2l-0.8-1.3c-3.3-5.3-5.1-11.4-5.1-17.6c0-18.3,14.9-33.1,33.1-33.1c8.8,0,17.2,3.5,23.4,9.7
		c6.3,6.3,9.7,14.6,9.7,23.4C97.3,81.9,82.4,96.8,64.2,96.8 M82.3,72c-1-0.5-5.9-2.9-6.8-3.2c-0.9-0.3-1.6-0.5-2.2,0.5
		s-2.6,3.2-3.2,3.9c-0.6,0.7-1.2,0.7-2.2,0.2s-4.2-1.5-8-4.9c-3-2.6-5-5.9-5.5-6.9s-0.1-1.5,0.4-2c0.4-0.4,1-1.2,1.5-1.7
		s0.7-1,1-1.7c0.3-0.7,0.2-1.2-0.1-1.7C57,53.9,55,49,54.2,47c-0.8-1.9-1.6-1.7-2.2-1.7c-0.6,0-1.2,0-1.9,0c-0.7,0-1.7,0.2-2.7,1.2
		c-0.9,1-3.5,3.4-3.5,8.3c0,4.9,3.6,9.6,4.1,10.3c0.5,0.7,7,10.7,17,15c2.4,1,4.2,1.6,5.7,2.1c2.4,0.8,4.6,0.7,6.3,0.4
		c1.9-0.3,5.9-2.4,6.7-4.7c0.8-2.3,0.8-4.3,0.6-4.7C84,72.7,83.3,72.5,82.3,72"/>
</g>
</svg>
