<svg xmlns="http://www.w3.org/2000/svg" viewBox="0 0 154.79 63.3"><defs><style>.cls-1{fill:#e7bd5b;}.cls-2{fill:#fff;}</style></defs><g id="Layer_1" data-name="Layer 1"><path class="cls-1" d="M154.79,31.65h0C155.14,31.29,140.62,0,123.14,0H0V63.3H123.14C140.62,63.3,154.79,32,154.79,31.65Z"/><path class="cls-2" d="M34.63,41.36a4.76,4.76,0,0,1-3.84-1.64A5.53,5.53,0,0,1,29.55,36V33.05l3.61-1.9v4.61a2.28,2.28,0,0,0,.47,1.63,2.16,2.16,0,0,0,1.58.48h9.4a2.07,2.07,0,0,0,1.56-.49,2.32,2.32,0,0,0,.46-1.62V30.45l3.64-1.9V36a5.21,5.21,0,0,1-1.65,4.1,5.36,5.36,0,0,1-3.69,1.27ZM37.4,27.94A1.88,1.88,0,0,1,36,27.41a2,2,0,0,1-.52-1.4A1.87,1.87,0,0,1,36,24.65a1.91,1.91,0,0,1,1.39-.52,1.84,1.84,0,0,1,1.37.51,1.82,1.82,0,0,1,.5,1.37A1.68,1.68,0,0,1,37.4,27.94Zm4.44,0a1.85,1.85,0,0,1-1.38-.52A1.87,1.87,0,0,1,39.94,26a1.67,1.67,0,0,1,1.9-1.88A1.76,1.76,0,0,1,43.72,26,1.68,1.68,0,0,1,41.84,27.94Z"/><path class="cls-2" d="M66.57,24.68l3.64-1.93V35.36a6,6,0,0,1-1.7,4.47,5.79,5.79,0,0,1-4.19,1.53H53.44l1.82-3.49h3.81V28.43l3.64-1.93V37.87h1.41A2.53,2.53,0,0,0,66,37.29a2.73,2.73,0,0,0,.56-2Z"/><path class="cls-2" d="M80.69,41.36a5.08,5.08,0,0,1-4.07-1.67A5.51,5.51,0,0,1,75.38,36V24.65L79,22.75v13a2.28,2.28,0,0,0,.46,1.6,2.11,2.11,0,0,0,1.56.48h2.6v3.49Z"/><path class="cls-2" d="M95.66,37.87h4.56v3.49H93.38a10.66,10.66,0,0,1-2.31-.2,11,11,0,0,1-2.3.2H81.9V37.87h4.56a6.71,6.71,0,0,1-1.1-3.58,6.45,6.45,0,0,1,1.7-4.65,5.35,5.35,0,0,1,4-1.58,5.18,5.18,0,0,1,4.39,2.05,6.58,6.58,0,0,1,1.3,4.18A6.71,6.71,0,0,1,95.66,37.87ZM88.85,26a1.85,1.85,0,0,1-1.38-.52A1.9,1.9,0,0,1,87,24.08a1.67,1.67,0,0,1,1.9-1.88,1.74,1.74,0,0,1,1.88,1.88A1.69,1.69,0,0,1,88.85,26Zm2.2,11.54a3.85,3.85,0,0,0,1.6-1.43,3.72,3.72,0,0,0,.62-2,3,3,0,0,0-.59-2,2,2,0,0,0-1.61-.71c-1.46,0-2.19.88-2.19,2.63a3.8,3.8,0,0,0,.61,2.09A3.5,3.5,0,0,0,91.05,37.55ZM93.3,26a1.87,1.87,0,0,1-1.39-.52,1.9,1.9,0,0,1-.52-1.41A1.68,1.68,0,0,1,93.3,22.2a1.73,1.73,0,0,1,1.87,1.88A1.68,1.68,0,0,1,93.3,26Z"/><path class="cls-2" d="M103.11,33.4a5.41,5.41,0,0,1,9.69-3.24,7.21,7.21,0,0,1,1.36,4.54,7.17,7.17,0,0,1-1.7,5,5.13,5.13,0,0,1-3.9,1.62,6.49,6.49,0,0,1-3.78-1,5.48,5.48,0,0,1-3.35,1H98.49V37.87h2.6a2.11,2.11,0,0,0,1.56-.48,2.28,2.28,0,0,0,.46-1.6Zm3.63,2.85q0,1.62,1.71,1.62c1.42,0,2.13-1.1,2.13-3.29s-.74-3.15-2.22-3.15c-1.08,0-1.62.64-1.62,1.91Z"/></g></svg>