<svg xmlns="http://www.w3.org/2000/svg" viewBox="0 0 154.79 63.3"><defs><style>.cls-1{fill:#ebebeb;}.cls-2{fill:#666;}</style></defs><g id="Layer_1" data-name="Layer 1"><path class="cls-1" d="M0,31.65H0C-.35,31.29,14.18,0,31.66,0H154.79V63.3H31.66C14.18,63.3,0,32,0,31.65Z"/><path class="cls-2" d="M45.92,22.86l7,18.92h-5l-.94-3h-7l-.94,3H34l7-18.92Zm-2.55,4.5c-.24,1-.51,2-.78,2.92-.4,1.42-1.12,3.65-1.55,5.07h4.8Z"/><path class="cls-2" d="M58.22,29.24a6.43,6.43,0,0,1,4-1.61v3.64l-1.36.22c-2,.35-2.58.64-2.58,2.41v7.88H54.2v-14h4Z"/><path class="cls-2" d="M64.81,23.75h4.1v4.36h2.7v2.52H68.88v6.3c0,.86,0,1.58,1.07,1.58l1.48,0v3.21a13.65,13.65,0,0,1-2.17.21c-1.42,0-3-.08-3.86-1.36a5.35,5.35,0,0,1-.59-3.16V30.6h-2V28.08h2Z"/><path class="cls-2" d="M73.84,22.83h4.07V26H73.84Zm0,4.93h4.07v14H73.84Z"/><path class="cls-2" d="M93.83,38.48A8,8,0,0,1,91.63,41a7,7,0,0,1-4,1.26c-2.68,0-6.94-1.61-6.94-7.31,0-4.07,2.36-7.5,7-7.5a6.69,6.69,0,0,1,6,3.34l-3.06,1.75A3.4,3.4,0,0,0,89.43,31a2.72,2.72,0,0,0-1.55-.48c-2.23,0-3,2.55-3,4.23,0,1.85.91,4.18,3.11,4.18a2.75,2.75,0,0,0,2.09-1,3,3,0,0,0,.62-1.13Z"/><path class="cls-2" d="M99.13,22.86V41.78H95V22.86Z"/><path class="cls-2" d="M115.91,38.21a11.15,11.15,0,0,1-1.69,2.09,7.68,7.68,0,0,1-5.28,2c-4.15,0-7.07-2.66-7.07-7.24,0-3.37,1.66-7.72,7.18-7.72a6.81,6.81,0,0,1,5,2c1.83,2,1.93,4.69,2,6.27h-10a3.16,3.16,0,0,0,3.19,3.49,3.71,3.71,0,0,0,3.54-2.47ZM111.81,33a3.33,3.33,0,0,0-.78-2,2.91,2.91,0,0,0-2-.78,2.83,2.83,0,0,0-2.09.91A3.66,3.66,0,0,0,106.1,33Z"/><path class="cls-2" d="M119.17,37.06A6,6,0,0,0,123.25,39c1,0,2.49-.32,2.49-1.37a.85.85,0,0,0-.54-.8,9.15,9.15,0,0,0-2.38-.54,15.86,15.86,0,0,1-1.88-.42,5.37,5.37,0,0,1-2.33-1.21,3.8,3.8,0,0,1-1-2.63c0-2.3,2-4.69,5.89-4.69a10.21,10.21,0,0,1,6.24,2.09l-2.54,2.36a5.84,5.84,0,0,0-3.51-1.39c-1.61,0-2,.64-2,1,0,.81.88,1,2.22,1.21,2.81.51,6.08,1.26,6.08,4.58s-3.32,4.91-6.62,4.91a9.19,9.19,0,0,1-6.77-2.71Z"/></g></svg>