<svg xmlns="http://www.w3.org/2000/svg" viewBox="0 0 154.79 63.3"><defs><style>.cls-1{fill:#ebebeb;}.cls-2{fill:#666;}</style></defs><g id="Layer_1" data-name="Layer 1"><path class="cls-1" d="M154.79,31.65h0C155.14,31.29,140.62,0,123.14,0H0V63.3H123.14C140.62,63.3,154.79,32,154.79,31.65Z"/><path class="cls-2" d="M47.2,36a9.76,9.76,0,0,1-2.87,3.21,9.13,9.13,0,0,1-5.28,1.67c-5,0-9-3.65-9-10,0-5.6,3.8-10,9.16-10a8.93,8.93,0,0,1,5.52,1.87,9.65,9.65,0,0,1,2.47,3l-3.76,1.88a4.72,4.72,0,0,0-1.42-2,4.1,4.1,0,0,0-2.59-.94c-3.06,0-4.67,2.84-4.67,6,0,4.16,2.12,6.22,4.67,6.22s3.45-1.72,4.09-2.81Z"/><path class="cls-2" d="M49.16,30.26a3.91,3.91,0,0,1,1.47-3.11,7.25,7.25,0,0,1,4.58-1.23c1.72,0,5.87.4,5.87,4v8.15c0,1.5.08,1.71.4,2.19h-4V39a6.59,6.59,0,0,1-4.28,1.66,4.24,4.24,0,0,1-4.58-4.26,4.52,4.52,0,0,1,2.94-4A36.22,36.22,0,0,1,57,31.09v-.75c-.05-.64-.1-1.71-1.58-1.71-1.82,0-2.06,1.12-2.17,1.63Zm5.22,4.21c-.7.27-1.77.67-1.77,1.74a1.5,1.5,0,0,0,1.56,1.42,2.69,2.69,0,0,0,1.42-.46C57,36.32,57,35,57,33.58Z"/><path class="cls-2" d="M68.8,27.74a6.49,6.49,0,0,1,4-1.6v3.64L71.48,30c-2,.35-2.58.65-2.58,2.41v7.88H64.78v-14h4Z"/><path class="cls-2" d="M87.42,21.37V40.28H83.67V39a5,5,0,0,1-3.78,1.69A5.69,5.69,0,0,1,76,39.05a7.74,7.74,0,0,1-2-5.68c0-5.28,3-7.45,5.82-7.45a5.75,5.75,0,0,1,3.7,1.42v-6ZM83.51,33.29a5.68,5.68,0,0,0-.89-3.46A2.16,2.16,0,0,0,81,29c-2.92,0-2.92,3.67-2.92,4.29,0,2,.54,4.34,2.63,4.34a2.45,2.45,0,0,0,1.34-.43C83.51,36.21,83.51,34.07,83.51,33.29Z"/><path class="cls-2" d="M91.79,35.57a6,6,0,0,0,4.07,1.93c1,0,2.49-.33,2.49-1.37a.84.84,0,0,0-.53-.8,8.56,8.56,0,0,0-2.39-.54,15.32,15.32,0,0,1-1.87-.43,5.34,5.34,0,0,1-2.34-1.2,3.82,3.82,0,0,1-1-2.63c0-2.3,2-4.69,5.89-4.69a10.27,10.27,0,0,1,6.25,2.09l-2.55,2.36a5.82,5.82,0,0,0-3.51-1.39c-1.61,0-2,.64-2,1,0,.8.88,1,2.22,1.21,2.82.5,6.08,1.25,6.08,4.58s-3.32,4.9-6.61,4.9a9.2,9.2,0,0,1-6.78-2.7Z"/></g></svg>