<svg xmlns="http://www.w3.org/2000/svg" viewBox="0 0 154.79 63.3"><defs><style>.cls-1{fill:#ebebeb;}.cls-2{fill:#666;}</style></defs><g id="Layer_1" data-name="Layer 1"><path class="cls-1" d="M0,31.65H0C-.35,31.29,14.18,0,31.66,0H154.79V63.3H31.66C14.18,63.3,0,32,0,31.65Z"/><path class="cls-2" d="M37.26,41.36a4.78,4.78,0,0,1-3.84-1.64A5.56,5.56,0,0,1,32.18,36V33.05l3.61-1.9v4.61a2.24,2.24,0,0,0,.48,1.63,2.14,2.14,0,0,0,1.57.48h9.41a2.07,2.07,0,0,0,1.56-.49,2.37,2.37,0,0,0,.46-1.62V30.45l3.63-1.9V36a5.24,5.24,0,0,1-1.64,4.1,5.37,5.37,0,0,1-3.7,1.27ZM40,27.94a1.82,1.82,0,0,1-1.38-.53,1.91,1.91,0,0,1-.52-1.4,1.83,1.83,0,0,1,.52-1.36A1.89,1.89,0,0,1,40,24.13,1.76,1.76,0,0,1,41.91,26,1.68,1.68,0,0,1,40,27.94Zm4.45,0a1.87,1.87,0,0,1-1.39-.52A1.91,1.91,0,0,1,42.57,26a1.68,1.68,0,0,1,1.91-1.88,1.86,1.86,0,0,1,1.37.51,1.88,1.88,0,0,1,.5,1.37A1.68,1.68,0,0,1,44.48,27.94Z"/><path class="cls-2" d="M63.41,41.36a5.1,5.1,0,0,1-4.07-1.67A5.48,5.48,0,0,1,58.1,36V24.65l3.63-1.9v13a2.23,2.23,0,0,0,.47,1.6,2.07,2.07,0,0,0,1.55.48h2.6v3.49Z"/><path class="cls-2" d="M64.62,41.36V37.87h4.62a5.48,5.48,0,0,1-.87-3.17,7.1,7.1,0,0,1,1.73-5,5.43,5.43,0,0,1,4.07-1.61,5,5,0,0,1,4,1.64,5.33,5.33,0,0,1,1.27,3.7V36A5.41,5.41,0,0,1,78,39.92a5.13,5.13,0,0,1-3.84,1.44ZM72,26a1.87,1.87,0,0,1-1.39-.52,1.94,1.94,0,0,1-.52-1.41A1.68,1.68,0,0,1,72,22.2a1.73,1.73,0,0,1,1.87,1.88A1.68,1.68,0,0,1,72,26Zm3.81,7.33c0-1.27-.54-1.9-1.62-1.9-1.48,0-2.22,1-2.22,3.14s.71,3.29,2.13,3.29c1.14,0,1.71-.62,1.71-1.85ZM76.42,26A1.85,1.85,0,0,1,75,25.49a1.9,1.9,0,0,1-.52-1.41,1.67,1.67,0,0,1,1.9-1.88,1.74,1.74,0,0,1,1.88,1.88A1.68,1.68,0,0,1,76.42,26Z"/><path class="cls-2" d="M89.64,41.36a5.1,5.1,0,0,1-4.07-1.67A5.48,5.48,0,0,1,84.33,36V24.65L88,22.75v13a2.23,2.23,0,0,0,.46,1.6,2.08,2.08,0,0,0,1.56.48h2.59v3.49Z"/><path class="cls-2" d="M116,37.87h2.59v3.49h-2.94a5.23,5.23,0,0,1-3.41-1.07,5.06,5.06,0,0,1-3.31,1.07H90.85V37.87H96l.34-1V24.68L100,22.75v8.31a9.2,9.2,0,0,1,6.75-3,6.84,6.84,0,0,1,5.46,2.36,7.3,7.3,0,0,1,1.73,4.94V36C113.94,37.24,114.62,37.87,116,37.87Zm-7.22,0a1.59,1.59,0,0,0,1.26-.38,2.76,2.76,0,0,0,.3-1.58v-.55a4,4,0,0,0-1-2.83,3.28,3.28,0,0,0-2.55-1.09A5.9,5.9,0,0,0,103,32.91,10.9,10.9,0,0,0,100,37v.89Z"/><path class="cls-2" d="M116.85,41.36V37.87h2.6a2.11,2.11,0,0,0,1.56-.48,2.28,2.28,0,0,0,.46-1.6V30.45l3.64-1.9V36a5,5,0,0,1-5.31,5.39ZM123,47.8a1.91,1.91,0,0,1-1.39-.52,2,2,0,0,1-.51-1.42,1.84,1.84,0,0,1,.51-1.35,1.88,1.88,0,0,1,3.27,1.35A1.69,1.69,0,0,1,123,47.8Z"/></g></svg>