<?xml version="1.0" encoding="utf-8"?>
<!-- Generator: Adobe Illustrator 24.1.2, SVG Export Plug-In . SVG Version: 6.00 Build 0)  -->
<svg version="1.1" id="Material_Expand" xmlns="http://www.w3.org/2000/svg" xmlns:xlink="http://www.w3.org/1999/xlink" x="0px"
	 y="0px" viewBox="0 0 64 64" style="enable-background:new 0 0 64 64;" xml:space="preserve">
<path d="M58.1,32.9h-5.6v-6.5c0-1-0.8-1.9-1.9-1.9H17.9v-4.7c0-7.2,6-14,14.1-14c8.1,0,14.1,7.3,14.1,14h1.8C47.9,11.1,40.8,4,32,4
	s-15.9,7.1-15.9,15.9v4.7h-2.8c-1,0-1.9,0.8-1.9,1.9v6.5H5.9c-1,0-1.9,0.8-1.9,1.9v14.9c0,1,0.8,1.9,1.9,1.9h5.6v6.5
	c0,1,0.8,1.9,1.9,1.9h37.3c1,0,1.9-0.8,1.9-1.9v-6.5h5.6c1,0,1.9-0.8,1.9-1.9V34.8C60,33.8,59.2,32.9,58.1,32.9z M13.3,26.4h37.3
	v6.5H13.3V26.4z M50.7,58.2H13.3v-6.6h37.3V58.2z M58.3,49.7H5.7V34.8h52.5V49.7z"/>
<rect x="11.5" y="40.4" width="3.7" height="3.7"/>
<rect x="18.9" y="40.4" width="3.7" height="3.7"/>
<rect x="26.4" y="40.4" width="3.7" height="3.7"/>
<rect x="33.9" y="40.4" width="3.7" height="3.7"/>
<rect x="41.3" y="40.4" width="3.7" height="3.7"/>
<rect x="48.8" y="40.4" width="3.7" height="3.7"/>
</svg>
