<?xml version="1.0" encoding="utf-8"?>
<!-- Generator: Adobe Illustrator 24.1.2, SVG Export Plug-In . SVG Version: 6.00 Build 0)  -->
<svg version="1.1" id="Layer_1" xmlns="http://www.w3.org/2000/svg" xmlns:xlink="http://www.w3.org/1999/xlink" x="0px" y="0px"
	 viewBox="0 0 463 383" style="enable-background:new 0 0 463 383;" xml:space="preserve">
<g id="_x35_66_x2C__encryption_x2C__files_x2C__folder_x2C__network_x2C__secure">
	<g>
		<path d="M203.5,369.3c-3.4,0-6.7-1.3-9.1-3.8c-2.4-2.3-3.8-5.6-3.8-9.1c0-3.4,1.3-6.7,3.8-9.1c1-1,2.1-1.8,3.3-2.4V323H22.3
			c-0.1,0-0.2,0-0.3,0c0,0,0,0,0,0c-0.1,0-0.1,0-0.2,0c0,0,0,0,0,0c-0.4-0.1-0.7-0.3-1-0.5c0,0,0,0,0,0c0,0,0,0,0,0c0,0,0,0,0,0
			c0,0,0,0,0,0c-0.1-0.1-0.1-0.1-0.2-0.2c0,0,0,0,0,0c0,0,0,0,0,0c-0.3-0.3-0.4-0.8-0.4-1.2L18.7,63.6c0-0.5,0.2-1,0.6-1.4
			c0.4-0.4,0.9-0.6,1.4-0.6h28.7V21.9c0-1.1,0.9-2,2-2H163c0.5,0,0.9,0.2,1.3,0.5l47.6,41.2h164.3c1.1,0,2,0.9,2,2v47.1H451
			c0.6,0,1.3,0.3,1.6,0.8c0.4,0.5,0.5,1.2,0.3,1.8l-73.8,208.3c-0.3,0.8-1,1.3-1.9,1.3H209.3v21.9c1.2,0.6,2.3,1.4,3.3,2.4
			c2.4,2.3,3.8,5.6,3.8,9.1c0,3.4-1.3,6.7-3.8,9.1C210.3,367.9,207,369.3,203.5,369.3z M25.1,319h174.6c1.1,0,2,0.9,2,2v25.2
			c0,0.9-0.6,1.6-1.4,1.9c-1.1,0.4-2.1,1-3.1,2c-1.7,1.7-2.6,3.9-2.6,6.3c0,2.4,0.9,4.7,2.6,6.2c1.7,1.7,4,2.7,6.3,2.7
			c2.4,0,4.7-0.9,6.3-2.6c1.7-1.7,2.6-4,2.6-6.3c0-2.4-0.9-4.7-2.6-6.2c-1-1-2.1-1.7-3.2-2.1c-0.8-0.3-1.4-1-1.4-1.9V321
			c0-1.1,0.9-2,2-2h168.5l72.4-204.3H97.3l0,0l-26.7,75.7L63.7,210L25.1,319z M22.7,65.6l1.5,243.9L66.8,189l26.3-74.8
			c0,0,0-0.1,0-0.1c0-0.2,0.1-0.4,0.3-0.7c0.1-0.2,0.2-0.3,0.3-0.5c0,0,0,0,0,0L94,112c0.3-0.8,1-1.3,1.9-1.3h0
			c0.5-0.3,1.1-0.5,1.6-0.6c0.1,0,0.2,0,0.3,0c0.2,0,0.5-0.1,0.8-0.1l26.7,0.5l223.6,0c0.3,0,0.6,0.1,0.9,0.2h24.3V65.6H22.7z
			 M93.2,114C93.2,114,93.2,114,93.2,114C93.2,114,93.2,114,93.2,114z M93.2,114C93.2,114,93.2,114,93.2,114
			C93.2,114,93.2,114,93.2,114z M53.4,61.6h152.4l-43.6-37.7H53.4V61.6z M275.2,288.7h-77c-2.9,0-5.3-2.4-5.3-5.3v-39.3
			c0-6.9,2.8-13.6,7.7-18.4c2.2-2.2,4.7-3.9,7.4-5.2v-16c0-6.4,2.5-12.4,7.1-17c4.3-4.4,10.5-7,16.8-7h9.4c6.3,0,12.5,2.6,17,7.1
			c4.6,4.6,7.1,10.6,7.1,17v15.3c2.8,1.2,5.5,3,7.9,5.2c4.7,4.7,7.2,10.7,7.2,17.1v41.1C280.5,286.3,278.1,288.7,275.2,288.7z
			 M231.9,184.5c-5.3,0-10.4,2.1-14,5.8c-3.8,3.8-5.9,8.9-5.9,14.2v17.3c0,0.8-0.5,1.6-1.3,1.9c-2.7,1.1-5.2,2.7-7.3,4.9
			c-4.1,4.1-6.5,9.7-6.5,15.6v39.3c0,0.7,0.6,1.3,1.3,1.3h77c0.7,0,1.3-0.6,1.3-1.3v-41.1c0-5.3-2.1-10.4-6-14.3
			c-2.3-2.2-5-3.9-7.7-4.8c-0.8-0.3-1.3-1-1.3-1.9v-16.7c0-5.3-2.1-10.4-5.9-14.2c-3.8-3.8-8.9-5.9-14.2-5.9H231.9z M239.5,275.5
			h-5.8c-1.1,0-2-0.9-2-2v-8.2c0-1.7-0.9-3.3-2.4-4c-0.1,0-0.1-0.1-0.2-0.1c-1.7-1.2-3.1-2.8-4-4.5c-1-1.9-1.5-4-1.5-6.2
			c0-3.5,1.4-6.8,3.8-9.2l0.3-0.3c2.4-2.2,5.6-3.5,8.9-3.5c3.5,0,6.8,1.3,9.2,3.8c2.4,2.4,3.8,5.8,3.8,9.2c0,2.4-0.5,4.6-1.6,6.3
			c-1,1.8-2.5,3.4-4.3,4.6c-1.4,0.8-2.2,2.3-2.2,3.9v8.2C241.5,274.6,240.6,275.5,239.5,275.5z M235.7,271.5h1.8v-6.2
			c0-3,1.6-5.8,4.1-7.3c1.2-0.8,2.2-2,3-3.3c0.7-1.2,1-2.6,1-4.3c0-2.4-1-4.7-2.6-6.4c-1.7-1.7-3.9-2.6-6.4-2.6
			c-2.3,0-4.5,0.9-6.1,2.4l-0.3,0.3c-1.7,1.7-2.6,4-2.6,6.4c0,1.5,0.4,3.1,1.1,4.4c0.6,1.2,1.5,2.2,2.7,3.1c2.7,1.5,4.3,4.4,4.3,7.5
			V271.5z M256.8,222h-40.3c-1.1,0-2-0.9-2-2v-15.5c0-4.6,1.9-9.1,5.1-12.3c3.2-3.2,7.7-5.1,12.3-5.1h9.4c4.7,0,9.1,1.8,12.4,5.1
			c3.3,3.3,5.1,7.7,5.1,12.3V220C258.8,221.1,257.9,222,256.8,222z M218.5,218h36.3v-13.5c0-3.6-1.4-7-3.9-9.5
			c-2.5-2.5-5.9-3.9-9.6-3.9h-9.4c-3.5,0-7,1.4-9.5,3.9c-2.5,2.5-3.9,5.9-3.9,9.5V218z M411,146H115v-4h296V146z"/>
	</g>
</g>
<g id="Layer_1_1_">
</g>
</svg>
