<?xml version="1.0" encoding="utf-8"?>
<!-- Generator: Adobe Illustrator 24.1.2, SVG Export Plug-In . SVG Version: 6.00 Build 0)  -->
<svg version="1.1" id="Layer_1" xmlns="http://www.w3.org/2000/svg" xmlns:xlink="http://www.w3.org/1999/xlink" x="0px" y="0px"
	 viewBox="0 0 351.7 329.9" style="enable-background:new 0 0 351.7 329.9;" xml:space="preserve">
<g id="_x36_10_x2C__Bug_x2C__bugs_x2C__insect_x2C__testing_x2C__virus">
	<g>
		<path d="M174.4,295.8v-0.2c-18.4-1.2-35.7-9.1-48.9-22.3c-11.2-11.2-18.5-25.1-21.3-40.5l-49.6,0.6l-16.5,51
			c-0.8,2.7-3.8,4.2-6.7,3.4c-1.4-0.4-2.5-1.3-3.2-2.5c-0.7-1.2-0.8-2.6-0.4-3.9l17.6-54.6c0.7-2.3,3-3.7,5.4-3.6l52.2-0.7
			c0-1.2-0.1-2.2-0.1-3.2v-31.8H58.5c-3,0-5.4-2.3-5.4-5.2s2.4-5.2,5.4-5.2h44.6v-35.8l-52.3,0c-2,0-3.7-1-4.7-2.6l-17.6-29.2
			c-0.7-1.2-0.9-2.6-0.5-3.9c0.4-1.4,1.3-2.5,2.6-3.2c2.5-1.4,5.7-0.5,7.2,1.9l16.1,26.7c17.4,0,34.8,0,52.2-0.1c1.8,0,3.6,0,5.4,0
			V125c0-17,6.7-33.1,18.8-45.3c7.5-7.5,16.8-13.1,26.8-16.1l-0.4-34.5c0-3.3,2.2-6,5.1-6.1c1.2,0,2.4,0.5,3.4,1.4
			c1.2,1.1,1.8,2.8,1.8,4.6l0.4,32.4c5.4-0.7,11.3-0.7,16.9,0.1l-0.4-32.8c0-3,2.2-5.5,5.1-5.6c2.9,0,5.2,2.4,5.2,5.4l0.5,35.3
			c9.9,3.1,18.9,8.6,26.2,15.9l0.2,0.2C233,92,239.6,108,239.6,125v6c20.3,0,40.6,0,60.9,0l15-26.6c1.4-2.5,4.6-3.3,7-1.9
			c1.2,0.7,2,1.8,2.4,3.1c0.4,1.3,0.2,2.7-0.5,3.9L308,138.7c-0.9,1.6-2.6,2.6-4.5,2.6l-53.7,0v36h43.8c3,0,5.5,2.3,5.5,5.2
			s-2.4,5.2-5.5,5.2h-43.8v31.8c0,1.1,0,2.1-0.1,3.2l51.6,0.6c2.5-0.1,4.8,1.3,5.5,3.6l18,54.5c0.4,1.3,0.3,2.7-0.4,3.9
			c-0.7,1.3-1.9,2.2-3.3,2.6c-2.8,0.8-5.8-0.7-6.7-3.4l-16.9-51l-49-0.6c-2.8,15.4-10.1,29.4-21.3,40.5
			c-13.2,13.2-30.5,21.1-48.9,22.3v0.2l-2-0.1L174.4,295.8z M107.7,228.8l0.3,1.7c2.4,15.2,9.4,29.1,20.4,40
			c12.4,12.5,28.7,19.9,46,21.1V135c-22.9,0-45.6,0-68.4,0.1c-17.8,0-35.5,0-53.4,0.1l-1.1,0l-17.3-28.6c-0.4-0.6-1.2-0.8-1.9-0.5
			c-0.3,0.2-0.5,0.4-0.6,0.7c-0.1,0.2-0.1,0.5,0.1,0.8l17.6,29.2c0.2,0.4,0.7,0.6,1.2,0.6l56.4,0v43.9H58.5c-0.7,0-1.4,0.5-1.4,1.2
			s0.6,1.2,1.4,1.2h48.6v35.8c0,1.5,0.1,3,0.2,5.1l0.1,2.1l-56.5,0.7l-0.1,0c-0.7-0.1-1.2,0.3-1.4,0.8l-17.6,54.5
			c-0.1,0.3,0,0.6,0.1,0.8c0.2,0.3,0.4,0.5,0.8,0.6c0.8,0.2,1.6-0.1,1.8-0.8l17.4-53.7L107.7,228.8z M178.4,135v156.6
			c17.4-1.2,33.6-8.7,46.1-21.1c11-11,18-24.8,20.4-40l0.3-1.7l55.3,0.7l17.8,53.7c0.2,0.7,1.1,1,1.8,0.8c0.4-0.1,0.7-0.3,0.9-0.6
			c0.1-0.2,0.2-0.4,0.1-0.7L303,228c-0.2-0.5-0.8-0.9-1.5-0.9l-0.1,0l-56-0.7l0.2-2.1c0.1-1.8,0.2-3.4,0.2-5.1v-35.8h47.8
			c0.8,0,1.5-0.5,1.5-1.2s-0.7-1.2-1.5-1.2h-47.8l0-44l57.7,0c0.4,0,0.8-0.2,1-0.6l16.5-29.2c0.2-0.3,0.2-0.6,0.1-0.9
			c-0.1-0.3-0.3-0.5-0.5-0.7c-0.6-0.3-1.3-0.1-1.6,0.4L302.8,135l-1.2,0c-27.8,0-55.7,0-83.5,0L178.4,135z M115.4,130.9h120.2V125
			c0-15.9-6.2-31-17.5-42.3l-0.1-0.2c-7.2-7.2-16.2-12.5-26-15.3l-1.9-0.5l0.5-1.9c0-0.1,0-0.2,0-0.4l-0.5-35.8
			c0-0.8-0.5-1.5-1.2-1.5c-0.6,0-1.1,0.7-1.1,1.5l0.5,37.6l-2.4-0.4c-6.7-1.2-13.9-1.2-20.3-0.1l-2.3,0.4l-0.4-37
			c0-0.7-0.2-1.4-0.6-1.7c-0.1-0.1-0.3-0.3-0.5-0.3c-0.5,0-1.1,0.8-1.1,2l0.4,37.5l-1.5,0.4c-10,2.7-19.2,8.1-26.6,15.5
			C121.7,94,115.4,109,115.4,125V130.9z M136.5,241.8c-3.7,0-7.2-1.5-9.9-4.1c-2.6-2.6-4.1-6.1-4.1-9.8c0-3.7,1.5-7.2,4.1-9.8
			c2.6-2.6,6.1-4.1,9.8-4.1c3.7,0,7.2,1.4,9.8,4.1c2.6,2.7,4.1,6.2,4.1,9.9c0,3.7-1.5,7.2-4.1,9.8
			C143.7,240.3,140.2,241.8,136.5,241.8z M136.5,217.9c-2.6,0-5.1,1-7,2.9c-1.9,1.9-2.9,4.4-2.9,7c0,2.7,1,5.2,2.9,7
			c1.9,1.9,4.4,2.9,7,2.9c2.6,0,5.1-1,7-2.9c1.9-1.9,2.9-4.4,2.9-7c0-2.6-1-5.1-2.9-7C141.6,218.9,139.1,217.9,136.5,217.9z
			 M215.8,237.8c-3.7,0-7.2-1.4-9.8-4.1c-2.6-2.6-4.1-6.1-4.1-9.8c0-3.7,1.5-7.2,4.1-9.9c2.6-2.6,6.1-4.1,9.8-4.1
			c3.7,0,7.2,1.5,9.9,4.1c2.6,2.6,4.1,6.1,4.1,9.8c0,3.7-1.4,7.2-4.1,9.8C223,236.4,219.5,237.8,215.8,237.8z M215.8,213.9
			c-2.7,0-5.1,1-7,2.9c-1.9,1.9-2.9,4.4-2.9,7c0,2.6,1,5.1,2.9,7c1.9,1.9,4.3,2.9,7,2.9c2.7,0,5.2-1,7.1-2.9c1.9-1.9,2.9-4.4,2.9-7
			c0-2.7-1-5.2-2.9-7C221,215,218.5,213.9,215.8,213.9z M141.8,184.3c-3.7,0-7.2-1.4-9.8-4.1c-2.6-2.6-4.1-6.1-4.1-9.8
			c0-3.7,1.5-7.2,4.1-9.9c2.6-2.6,6.1-4.1,9.8-4.1c3.7,0,7.2,1.5,9.8,4.1c2.6,2.6,4.1,6.1,4.1,9.8c0,3.7-1.4,7.2-4.1,9.8
			C148.9,182.8,145.5,184.3,141.8,184.3z M141.8,160.4c-2.7,0-5.2,1-7,2.9c-1.9,1.9-2.9,4.4-2.9,7c0,2.6,1,5.1,2.9,7
			c1.9,1.9,4.4,2.9,7,2.9c2.6,0,5.1-1,7-2.9c1.9-1.9,2.9-4.4,2.9-7c0-2.7-1-5.2-2.9-7C146.9,161.4,144.4,160.4,141.8,160.4z
			 M210.6,171.9c-3.7,0-7.2-1.5-9.8-4.1c-2.6-2.6-4.1-6.1-4.1-9.8c0-3.7,1.4-7.2,4.1-9.8c2.6-2.6,6.1-4.1,9.8-4.1
			c3.7,0,7.2,1.5,9.9,4.1c2.6,2.6,4.1,6.1,4.1,9.8c0,3.7-1.5,7.2-4.1,9.8C217.8,170.4,214.3,171.9,210.6,171.9z M210.6,148.1
			c-2.6,0-5.1,1-7,2.9c-1.9,1.9-2.9,4.4-2.9,7c0,2.6,1,5.1,2.9,7c1.9,1.9,4.4,2.9,7,2.9c2.7,0,5.2-1,7-2.9c1.9-1.9,2.9-4.3,2.9-7
			c0-2.7-1-5.2-2.9-7C215.7,149.1,213.2,148.1,210.6,148.1z M197.9,106c-4.4,0-7.9-3.6-7.9-8c0-4.4,3.6-7.9,7.9-7.9
			c4.4,0,7.9,3.6,7.9,7.9C205.8,102.4,202.3,106,197.9,106z M197.9,94.1c-2.2,0-3.9,1.8-3.9,3.9c0,2.2,1.8,4,3.9,4
			c2.2,0,3.9-1.8,3.9-4C201.8,95.9,200.1,94.1,197.9,94.1z M153.2,106c-4.4,0-7.9-3.6-7.9-8c0-4.4,3.6-7.9,7.9-7.9
			c4.4,0,8,3.6,8,7.9C161.1,102.4,157.6,106,153.2,106z M153.2,94.1c-2.2,0-3.9,1.8-3.9,3.9c0,2.2,1.8,4,3.9,4c2.2,0,4-1.8,4-4
			C157.1,95.9,155.4,94.1,153.2,94.1z"/>
	</g>
</g>
</svg>
