<svg id="svg18" xmlns="http://www.w3.org/2000/svg" viewBox="0 0 268.15 310.63"><g id="security_setting_icon" data-name="security setting icon"><g id="g14"><path d="M134.08,294.77a8.92,8.92,0,0,1-4.93-1.46c-27.29-15-50.11-34.7-67.83-58.67C28.33,190.56,12.42,133,14,63.69v-.13a9.8,9.8,0,0,1,8.55-9,269.16,269.16,0,0,0,51.31-12.4c16.91-5.86,35-14.09,55.33-25.18a10.5,10.5,0,0,1,9.59,0,384.94,384.94,0,0,0,55.42,25.23,271.18,271.18,0,0,0,51.62,12.4,9.22,9.22,0,0,1,8.24,9.16c1.62,69.33-14.29,126.84-47.28,170.94C189.12,258.29,166.31,278,139,293.3A8.9,8.9,0,0,1,134.08,294.77ZM18,63.85c-1.59,68.4,14.05,125.06,46.49,168.41a203.55,203.55,0,0,0,66.62,57.58l.18.11a5,5,0,0,0,5.5,0l.16-.1c26.83-15,49.25-34.38,66.64-57.6,32.45-43.36,48.09-100.05,46.48-168.47v-.05a5.27,5.27,0,0,0-4.64-5.2h-.1a275.8,275.8,0,0,1-52.44-12.59A388.09,388.09,0,0,1,137,20.48a6.51,6.51,0,0,0-5.95,0C110.63,31.67,92.34,40,75.23,45.93A273.89,273.89,0,0,1,23.11,58.52H23A5.83,5.83,0,0,0,18,63.85Z"/><path d="M115.92,219.85a14.31,14.31,0,0,1-4-.77l-.17-.06-11.36-5c-4.82-1.67-7.51-7-6.26-12.41l0-.1c.36-1.24.62-2.52.9-3.87.14-.72.3-1.46.47-2.23a64,64,0,0,1-7.91-7.88,57.78,57.78,0,0,1-6.22,1.36c-4.87,1.51-10.28-1.19-12.39-6.22L64.3,171.2a10.41,10.41,0,0,1,4.25-13.26c1.13-.64,2.2-1.3,3.27-2,.74-.46,1.49-.92,2.26-1.37a46.85,46.85,0,0,1,0-11.35l-.73-.43a40.87,40.87,0,0,0-4.63-2.49l-.29-.15a11,11,0,0,1-4.13-13.55L69,115.21A11.12,11.12,0,0,1,81.43,109c1.19.34,2.38.66,3.58,1l2.56.69a65.83,65.83,0,0,1,8-8.13c-.24-1-.44-1.92-.64-2.91s-.45-2.18-.74-3.34a10.71,10.71,0,0,1,6.21-12.41l11.44-4.7A10.8,10.8,0,0,1,125,83.34l.22.39c1.07,1.87,2.1,3.66,3.14,5.29a86.43,86.43,0,0,1,11.38,0c1.14-1.8,2.29-3.82,3.33-5.64a10.83,10.83,0,0,1,13.27-4.21l11.42,4.7A10.69,10.69,0,0,1,174,96.28c-.58,2.3-1.16,4.38-1.69,6.22a67.31,67.31,0,0,1,8.19,8.18c.85-.24,1.72-.47,2.6-.7,1.2-.32,2.41-.65,3.54-1a11.12,11.12,0,0,1,12.46,6.13l4.73,11.51a11,11,0,0,1-4.14,13.54l-.28.15a40,40,0,0,0-4.67,2.51l-.68.4a48,48,0,0,1,0,11.36c.76.45,1.5.91,2.24,1.36,1.07.66,2.15,1.32,3.3,2a10.38,10.38,0,0,1,4.22,13.26l-4.69,11.43c-2.11,5.05-7.53,7.75-12.39,6.24a56,56,0,0,1-6.29-1.38,66.63,66.63,0,0,1-8.15,7.94c.54,2.07,1.09,4,1.68,6.06l0,.1c1.26,5.43-1.43,10.74-6.26,12.41l-11.53,5.07c-5.09,1.71-10.71-.25-13.11-4.55-1.13-1.71-2.27-3.67-3.38-5.6a46.68,46.68,0,0,1-11.33,0c-1.12,1.95-2.28,3.94-3.44,5.67A10.74,10.74,0,0,1,115.92,219.85Zm-2.65-4.53a10.23,10.23,0,0,0,2.65.53,6.72,6.72,0,0,0,5.69-3.42c1.2-1.78,2.34-3.76,3.54-5.85l1.16-2,1.35.21a43.17,43.17,0,0,0,12.84,0l1.35-.21.9,1.57c1.24,2.15,2.51,4.38,3.75,6.23l.09.15c1.45,2.66,5,3.84,8.29,2.79l11.52-5.08c3-1,4.52-4.21,3.74-7.69-.72-2.5-1.36-4.79-2-7.41l-.34-1.31,1.1-.8a61.86,61.86,0,0,0,9.31-9l1-1.09,1.2.34a55.21,55.21,0,0,0,7.13,1.62l.35.09c2.94,1,6.28-.75,7.62-3.92l4.69-11.43a6.41,6.41,0,0,0-2.47-8.23l0,0c-1.2-.69-2.31-1.37-3.42-2.05s-2.15-1.32-3.31-2l-1.19-.69.21-1.35a43.31,43.31,0,0,0,0-12.86l-.21-1.36,1.19-.68c.62-.35,1.22-.71,1.8-1.05a42.28,42.28,0,0,1,5-2.67,7,7,0,0,0,2.46-8.56l-4.7-11.45a7,7,0,0,0-7.76-3.85c-1.08.31-2.31.63-3.55,1s-2.57.69-3.77,1l-1.27.36-.83-1a64.84,64.84,0,0,0-9.49-9.47l-1-.84.37-1.27c.61-2.09,1.32-4.56,2-7.33a6.68,6.68,0,0,0-3.88-7.75l-11.42-4.69a6.84,6.84,0,0,0-8.29,2.53c-1.24,2.17-2.67,4.67-4.08,6.8l-.65,1-1.18-.09a87.19,87.19,0,0,0-13.13,0l-1.17.09-.65-1c-1.32-2-2.64-4.27-3.91-6.49l-.2-.35a6.8,6.8,0,0,0-8.25-2.51l-11.45,4.71A6.67,6.67,0,0,0,98,95.31c.31,1.24.55,2.39.78,3.5.27,1.34.53,2.61.88,3.85l.34,1.2-.92.83A62.32,62.32,0,0,0,90,114.13l-.83,1.13-1.34-.38c-1.21-.35-2.51-.7-3.81-1s-2.44-.65-3.58-1a7.07,7.07,0,0,0-7.72,3.94L68,128.17a7,7,0,0,0,2.46,8.57,44.26,44.26,0,0,1,5,2.65c.59.35,1.19.71,1.82,1.07l1.18.68-.19,1.34a43.43,43.43,0,0,0,0,12.88l.21,1.36-1.2.68c-1.16.66-2.24,1.32-3.32,2s-2.21,1.36-3.41,2a6.43,6.43,0,0,0-2.5,8.24l4.71,11.45c1.32,3.17,4.67,4.89,7.6,3.91l.35-.09a55.41,55.41,0,0,0,7.13-1.62l1.28-.37.83,1a59.84,59.84,0,0,0,9.11,9.1l1,.8-.31,1.24c-.28,1.14-.51,2.24-.73,3.3-.29,1.41-.56,2.75-1,4.12-.79,3.48.78,6.71,3.73,7.69l.18.07Z"/></g></g><g id="DHlx2e"><path d="M168.17,149.37a34.8,34.8,0,1,1-34.27-34.79A34.81,34.81,0,0,1,168.17,149.37Zm-50.85.93c0,.14,0,.24,0,.33a62.79,62.79,0,0,0,1.21,11.28c.22,1.06.48,2.12.71,3.18.05.26.14.4.47.37a11.25,11.25,0,0,1,1.16,0l11.17,0,.42,0V150.3Zm15.13-1.85V133.32h-.24q-6.3,0-12.62,0a.42.42,0,0,0-.3.28c-.31,1.28-.63,2.57-.88,3.86a55.8,55.8,0,0,0-1,8.25c0,.91,0,1.82,0,2.76Zm1.86-15.14v15.13h15.13v-.36a62.42,62.42,0,0,0-.92-9.64c-.29-1.57-.66-3.12-1-4.69a.48.48,0,0,0-.59-.45c-.65,0-1.31,0-2,0H134.31Zm0,17v15.14l.27,0,12.5,0c.29,0,.38-.13.44-.37.27-1.27.58-2.52.83-3.79a58.47,58.47,0,0,0,1-8.24c0-.92,0-1.83,0-2.78Zm16.91-1.84h15.16v-.38a33.92,33.92,0,0,0-1.39-8.24,33.28,33.28,0,0,0-2.61-6.22.55.55,0,0,0-.56-.31H149.71l-.49,0A62.54,62.54,0,0,1,151.22,148.45Zm-35.69,1.85H100.37c0,.13,0,.22,0,.31.24,1.92.4,3.85.76,5.75a30.36,30.36,0,0,0,3.07,8.48,1,1,0,0,0,1,.63c3.76,0,7.53,0,11.29,0h1A62.08,62.08,0,0,1,115.53,150.3Zm0-1.85a63.75,63.75,0,0,1,2-15.15H104.91a.51.51,0,0,0-.53.29,32,32,0,0,0-2.37,5.47,31.63,31.63,0,0,0-1.48,7c-.08.79-.13,1.58-.19,2.39Zm33.69,17h12.61a.51.51,0,0,0,.55-.31,33,33,0,0,0,2.45-5.7A34.2,34.2,0,0,0,166.3,152c0-.56.06-1.13.09-1.7H151.22A62.67,62.67,0,0,1,149.22,165.45Zm-14.93,16.88a8.65,8.65,0,0,0,3.34-1.13,16.18,16.18,0,0,0,5.36-5.46,34.12,34.12,0,0,0,3.2-6.5c.25-.64.44-1.3.67-2H134.29Zm12.54-50.82a.9.9,0,0,0,0-.18,33.46,33.46,0,0,0-4.68-9.56,14,14,0,0,0-5.43-4.69,8.54,8.54,0,0,0-2.4-.66v15.09Zm-14.37-15.09a8.5,8.5,0,0,0-3.36,1.15,15.64,15.64,0,0,0-5,5,32.64,32.64,0,0,0-3.52,7c-.23.62-.44,1.25-.68,1.93h12.59Zm0,50.8H119.87c.13.37.25.69.36,1a31.8,31.8,0,0,0,4.33,8.66,13.59,13.59,0,0,0,5.6,4.81,20,20,0,0,0,2.3.72Zm-5.94,14.42a21.88,21.88,0,0,1-4.47-5.27,36.62,36.62,0,0,1-3.91-8.82.41.41,0,0,0-.47-.34c-.87,0-1.73,0-2.59,0l-9.07,0c-.11,0-.21,0-.4,0A33.05,33.05,0,0,0,126.52,181.64Zm-20.91-50.15c.19,0,.3,0,.41,0h11.66a.4.4,0,0,0,.45-.31c.7-1.86,1.35-3.75,2.15-5.56a24.94,24.94,0,0,1,4-6.36c.69-.77,1.41-1.53,2.05-2.22A33.24,33.24,0,0,0,105.61,131.49Zm55.53,0a32.87,32.87,0,0,0-8-8.62,31.8,31.8,0,0,0-12.91-5.79c0,.09.11.12.18.17a21.65,21.65,0,0,1,5,6.25,38.29,38.29,0,0,1,3.24,7.67.37.37,0,0,0,.43.32l2.8,0,8.69,0Zm-20.84,50.1a32.6,32.6,0,0,0,16.36-8.88,31,31,0,0,0,4.44-5.49l-.15-.05c-4,0-8,0-12,0a.53.53,0,0,0-.35.29c-.72,1.85-1.37,3.74-2.16,5.55a23.82,23.82,0,0,1-3.69,5.94C142,179.93,141.11,180.78,140.3,181.64Z"/><path d="M133.34,184.68h-.44a35.3,35.3,0,1,1,35.77-35.32,35.32,35.32,0,0,1-35.33,35.32Zm.08-69.61a34.3,34.3,0,1,0,34.25,34.3h0a34.35,34.35,0,0,0-33.78-34.28Zm-.47,68-.64-.2-.75-.21a13.63,13.63,0,0,1-1.6-.53,13.89,13.89,0,0,1-5.8-5,32.83,32.83,0,0,1-4.41-8.79c-.07-.22-.15-.43-.23-.66l-.37-1H133Zm-12.37-15.37.12.34A31.91,31.91,0,0,0,125,176.6a13,13,0,0,0,5.39,4.64,10.55,10.55,0,0,0,1.47.48l.13,0v-14Zm13.21,15.17V166.74h13.76l-.43,1.32c-.15.47-.29.92-.46,1.36a35,35,0,0,1-3.25,6.6,16.56,16.56,0,0,1-5.53,5.61,9,9,0,0,1-3.53,1.2Zm1-15.16v14a8.27,8.27,0,0,0,2.59-1,15.49,15.49,0,0,0,5.19-5.3,34.47,34.47,0,0,0,3.16-6.41c.16-.42.3-.86.44-1.3v0Zm-6.38,14.84-2-.45a33.74,33.74,0,0,1-21.22-14.59l-.46-.69,1-.11.29,0,9.06,0h1.12c.49,0,1,0,1.47,0a.92.92,0,0,1,1,.69,36.56,36.56,0,0,0,3.86,8.7,21.39,21.39,0,0,0,4.37,5.16Zm-21.88-14.86a32.12,32.12,0,0,0,18.23,13,23.7,23.7,0,0,1-3.14-4.06,37.43,37.43,0,0,1-4-8.92c-.53,0-1,0-1.48,0h-1.1Zm32.33,14.7,1.08-1.13.77-.8c.57-.58,1.16-1.19,1.7-1.81a23,23,0,0,0,3.61-5.81c.51-1.16,1-2.38,1.41-3.55q.36-1,.75-2a1,1,0,0,1,.81-.61h12l.72.27-.24.55a31.32,31.32,0,0,1-4.5,5.57,32.9,32.9,0,0,1-16.63,9Zm10.26-14.69c-.27.65-.52,1.29-.76,1.94-.44,1.19-.91,2.42-1.43,3.6a23.75,23.75,0,0,1-3.77,6.07c-.43.49-.88,1-1.33,1.44a32.32,32.32,0,0,0,14.48-8.37,31.09,31.09,0,0,0,3.9-4.69Zm-2-1.76h0l-9.56,0h-3.14l-.47,0-.1-.48V149.79h16v.5c0,.3,0,.59,0,.89,0,.64,0,1.28,0,1.91a58.05,58.05,0,0,1-1,8.31c-.16.84-.35,1.66-.54,2.49l-.3,1.31A.88.88,0,0,1,147.08,166Zm-12.27-1h2.71l9.51,0c.1-.47.2-.89.3-1.3.18-.82.37-1.64.53-2.46a58.84,58.84,0,0,0,1-8.17c0-.61,0-1.23,0-1.85v-.4h-14Zm-14,1-.43,0a3.75,3.75,0,0,0-.67,0,.86.86,0,0,1-1-.77l-.3-1.31c-.14-.62-.28-1.24-.41-1.87a62.76,62.76,0,0,1-1.22-11.36v-.85H133v16.09l-.59,0-.33,0-11.17,0Zm-.81-1,.43,0a2.51,2.51,0,0,1,.39,0L132,165V150.8H117.82a61.91,61.91,0,0,0,1.2,11c.13.62.27,1.23.41,1.85.1.43.19.86.29,1.29Zm-14.86,1a1.47,1.47,0,0,1-1.44-.9,31.63,31.63,0,0,1-3.12-8.62c-.25-1.34-.4-2.71-.55-4-.07-.58-.13-1.16-.21-1.74a2.44,2.44,0,0,1,0-.28v-.6H116v.49a61.91,61.91,0,0,0,2,15l.17.63h-4.37c-2.87,0-5.74,0-8.61,0Zm-4.3-15.17c.07.5.12,1,.18,1.51.15,1.3.3,2.66.55,4a30,30,0,0,0,3,8.34.53.53,0,0,0,.57.36c2.87,0,5.74,0,8.61,0h3.07A62.86,62.86,0,0,1,115,150.8ZM161.83,166H148.57l.17-.63a62,62,0,0,0,2-15v-.49h16.19l0,1.07c0,.4,0,.79-.07,1.17a33.63,33.63,0,0,1-4,13.33A1,1,0,0,1,161.83,166Zm-7.45-1h7.45l.11,0A32.46,32.46,0,0,0,165.8,152c0-.37,0-.74.07-1.12v0H151.71A63.25,63.25,0,0,1,149.87,165h4.51ZM116,149H99.8l.1-1.32c0-.55.08-1.08.13-1.61a32.64,32.64,0,0,1,1.5-7.12,33.26,33.26,0,0,1,2.41-5.55,1,1,0,0,1,1-.55h13.27l-.16.63a62.55,62.55,0,0,0-2,15Zm-15.14-1H115a63.85,63.85,0,0,1,1.84-14.15h-12a27.72,27.72,0,0,0-2.43,5.41,31.82,31.82,0,0,0-1.46,6.9c0,.53-.08,1-.12,1.59ZM133,149h-16v-.5c0-.29,0-.58,0-.87,0-.65,0-1.28,0-1.92a58.4,58.4,0,0,1,1-8.31c.22-1.13.5-2.26.76-3.35l.13-.54a.91.91,0,0,1,.79-.66c3.86,0,7.72,0,11.57,0h1.05l.19,0,.45,0,.1.46Zm-15-1h14V133.81h-.79c-3.81,0-7.61,0-11.42,0l-.1.43c-.26,1.08-.53,2.2-.74,3.31a56.62,56.62,0,0,0-1,8.17c0,.61,0,1.23,0,1.86C117.91,147.69,117.91,147.82,117.91,148Zm1.68-14.15ZM166.88,149H150.73v-.49a61.61,61.61,0,0,0-2-15l-.15-.6.79,0a1.9,1.9,0,0,1,.34,0h12.12a1,1,0,0,1,1,.57,33.3,33.3,0,0,1,4.06,14.68v.9Zm-15.17-1h14.16a33,33,0,0,0-1.36-8,33.38,33.38,0,0,0-2.57-6.13s0,0-.11,0h-12A62.92,62.92,0,0,1,151.71,148Zm-1.77,1H133.81V132.8h11.76c.45,0,.91,0,1.35,0a1,1,0,0,1,1.11.85c.12.59.25,1.18.38,1.77.21,1,.42,2,.6,2.93a62.53,62.53,0,0,1,.93,9.72v.87Zm-15.13-1h14.12a60.12,60.12,0,0,0-.9-9.4c-.18-1-.39-1.94-.6-2.9-.13-.6-.26-1.19-.38-1.79,0,0,0,0,0-.06H147c-.47,0-.95,0-1.42,0H134.81Zm17-15.88h-2.7a.89.89,0,0,1-.92-.67A37.78,37.78,0,0,0,145,123.8a21.19,21.19,0,0,0-4.9-6.11.78.78,0,0,1-.33-.39l-.3-.83.87.17a32.5,32.5,0,0,1,13.11,5.88,33.31,33.31,0,0,1,8.15,8.74l.5.78-10.2,0Zm-2.68-1h2.77l8.35,0a32.33,32.33,0,0,0-7.4-7.72,31.7,31.7,0,0,0-10.87-5.27,23.63,23.63,0,0,1,3.89,5.26A38.22,38.22,0,0,1,149.09,131Zm-31.41,1H106l-.3,0-1-.12.45-.68a33.87,33.87,0,0,1,21.07-14.61l1.57-.36-1.69,1.84c-.47.5-1,1-1.44,1.57a23.82,23.82,0,0,0-4,6.22c-.6,1.36-1.13,2.79-1.63,4.17l-.51,1.36A.9.9,0,0,1,117.68,132Zm-11.15-1h11.13l.51-1.35c.51-1.39,1-2.84,1.66-4.22A24.89,24.89,0,0,1,124,119l.9-1A32.73,32.73,0,0,0,106.53,131ZM133,132h-13.8l.45-1.29c.16-.45.31-.89.47-1.32a33,33,0,0,1,3.58-7.14,16.31,16.31,0,0,1,5.19-5.14,9.14,9.14,0,0,1,3.55-1.21l.56-.06Zm-12.39-1H132V117a8.19,8.19,0,0,0-2.61,1,15.26,15.26,0,0,0-4.87,4.83,32.19,32.19,0,0,0-3.46,6.93C120.86,130.17,120.72,130.59,120.57,131Zm26.26,1h-13V115.84l.57.08a9.07,9.07,0,0,1,2.53.7,14.3,14.3,0,0,1,5.64,4.86,33.73,33.73,0,0,1,4.75,9.7,1.31,1.31,0,0,1,0,.22l0,.54Zm-12-1h11.37a32.27,32.27,0,0,0-4.44-8.94,13.35,13.35,0,0,0-5.24-4.54,7.44,7.44,0,0,0-1.69-.52Z"/></g></svg>