<?xml version="1.0" encoding="utf-8"?>
<!-- Generator: Adobe Illustrator 24.1.2, SVG Export Plug-In . SVG Version: 6.00 Build 0)  -->
<svg version="1.1" id="Layer_1" xmlns="http://www.w3.org/2000/svg" xmlns:xlink="http://www.w3.org/1999/xlink" x="0px" y="0px"
	 viewBox="0 0 512 512" style="enable-background:new 0 0 512 512;" xml:space="preserve">
<path d="M151.8,245.3H97.7v-28.2h54.1V245.3z M101.7,241.3h46.1v-20.2h-46.1V241.3z"/>
<path d="M151.8,278.2H97.7V250h54.1V278.2z M101.7,274.2h46.1V254h-46.1V274.2z"/>
<path d="M151.8,311.2H97.7v-28.3h54.1V311.2z M101.7,307.2h46.1v-20.3h-46.1V307.2z"/>
<path d="M151.8,377H97.7v-28.2h54.1V377z M101.7,373h46.1v-20.2h-46.1V373z"/>
<path d="M273.4,327.1h-18.8V292c0-0.7-0.4-1.4-1.1-1.6l-0.2-0.1c-3.2-1.8-5.9-4.5-7.8-7.7c-1.9-3.2-2.9-7-2.9-10.8
	c0-5.7,2.2-11.1,6.2-15.1c4-4,9.4-6.2,15.1-6.2c5.7,0,11,2.2,15.1,6.2v0c4,4,6.3,9.4,6.3,15.1c0,3.8-1,7.5-2.9,10.8l-0.2,0.3
	c-1.9,3.1-4.6,5.7-7.9,7.6c-0.6,0.3-0.9,0.9-1,1.6L273.4,327.1z M258.6,323.1h10.8V292c0-2.1,1.2-4.1,3-5.1c2.7-1.5,4.9-3.7,6.5-6.2
	l0.1-0.2c1.5-2.7,2.4-5.7,2.4-8.7c0-4.6-1.8-9-5.1-12.3c-3.3-3.3-7.6-5.1-12.2-5.1c-4.6,0-9,1.8-12.3,5.1c-3.3,3.3-5.1,7.6-5.1,12.3
	c0,3.1,0.8,6.2,2.4,8.8c1.5,2.6,3.7,4.7,6.3,6.2c2,1,3.3,3,3.3,5.2V323.1z"/>
<path d="M358.7,155h-25.5v-23.3c0-18.4-7.2-35.8-20.3-48.9c-13.1-13.1-30.5-20.4-48.9-20.4c-18.4,0-35.7,7.2-48.9,20.4
	c-13.1,13.1-20.4,30.5-20.4,48.9V155h-25.5v-21.1c0-25.2,9.9-49,27.8-66.9C215,49.1,238.8,39.2,264,39.2c25.2,0,49,9.9,66.9,27.8
	c18,18,27.8,41.7,27.8,66.9V155z M337.2,151h17.5v-17.1c0-24.1-9.5-46.9-26.7-64.1c-17.2-17.2-39.9-26.6-64.1-26.6
	c-24.1,0-46.9,9.5-64.1,26.6c-17.2,17.2-26.6,39.9-26.6,64.1V151h17.5v-19.3c0-19.5,7.7-37.8,21.5-51.7
	c13.9-13.9,32.3-21.5,51.7-21.5c19.5,0,37.9,7.7,51.8,21.5c13.9,13.9,21.5,32.3,21.5,51.7V151z"/>
<path d="M387.1,174.3H140.8V151h246.3V174.3z M144.8,170.3h238.3V155H144.8V170.3z"/>
<path d="M174,480.4c-1.6,0-3.1-0.6-4.2-1.6l-0.2-0.2c-1.2-1.2-1.9-2.8-1.9-4.5c0-1.5,0.6-3,1.6-4.2l0.2-0.2c1.1-1.1,2.7-1.8,4.3-1.8
	l0.3,0c1.7,0,3.2,0.7,4.4,1.9c1.1,1.1,1.8,2.7,1.8,4.4c0,1.7-0.7,3.3-1.9,4.5C177.3,479.8,175.7,480.4,174,480.4z M172.3,472.6
	c-0.4,0.4-0.6,1-0.6,1.5c0,0.6,0.2,1.2,0.7,1.6l0.1,0.1c0.4,0.3,0.9,0.5,1.5,0.5c0.6,0,1.2-0.2,1.6-0.7c0.4-0.4,0.7-1,0.7-1.6
	c0-0.6-0.2-1.2-0.6-1.6c-0.5-0.5-1-0.7-1.6-0.7l-0.1,0c-0.6,0-1.2,0.3-1.6,0.6L172.3,472.6z"/>
<path d="M198.8,445.2c-1.7,0-3.3-0.7-4.5-1.9c-1.2-1.2-1.9-2.8-1.9-4.5c0-1.7,0.7-3.3,1.9-4.5c1.1-1.1,2.6-1.8,4.3-1.8l0.3,0
	c1.6,0,3,0.6,4.1,1.6l0.3,0.3c1.2,1.2,1.8,2.7,1.8,4.4c0,1.7-0.7,3.3-1.9,4.5C202.1,444.6,200.5,445.2,198.8,445.2z M198.7,436.6
	c-0.5,0-1.1,0.2-1.5,0.6c-0.4,0.4-0.7,1-0.7,1.6c0,0.6,0.2,1.2,0.7,1.6c0.9,0.9,2.4,0.9,3.3,0c0.4-0.4,0.7-1,0.7-1.6
	c0-0.6-0.2-1.2-0.7-1.6l-0.2-0.2c-0.4-0.3-0.9-0.5-1.4-0.5L198.7,436.6z"/>
<path d="M263.7,477c-1.7,0-3.3-0.7-4.5-1.9c-1.2-1.2-1.8-2.8-1.8-4.4c0-1.7,0.6-3.2,1.8-4.5c1.2-1.2,2.7-1.8,4.3-1.9l0.3,0l0.1,0
	c1.5,0,3.1,0.7,4.3,1.8c1.2,1.2,1.8,2.8,1.8,4.5c0,1.6-0.6,3.1-1.6,4.3l-0.3,0.3C266.9,476.3,265.3,477,263.7,477z M263.7,468.3
	l-0.1,0c-0.6,0-1.2,0.3-1.6,0.7c-0.4,0.4-0.7,1.1-0.7,1.7c0,0.6,0.2,1.2,0.7,1.6c0.8,0.9,2.4,0.9,3.3,0l0.2-0.2
	c0.3-0.4,0.5-0.9,0.5-1.5c0-0.6-0.2-1.2-0.6-1.6C264.9,468.6,264.3,468.4,263.7,468.3z"/>
<path d="M353.9,480.4c-1.7,0-3.3-0.7-4.5-1.9c-1.2-1.2-1.9-2.8-1.9-4.5s0.7-3.3,1.9-4.5c1.1-1.1,2.7-1.8,4.3-1.8l0.3,0
	c1.7,0,3.2,0.7,4.4,1.8l0.2,0.2c1,1.2,1.6,2.7,1.6,4.2c0,1.6-0.6,3.2-1.8,4.4l-0.3,0.3C357,479.9,355.5,480.4,353.9,480.4z
	 M354,471.8l-0.1,0c-0.6,0-1.2,0.3-1.6,0.6c-0.4,0.4-0.7,1-0.7,1.6c0,0.6,0.2,1.2,0.7,1.6c0.8,0.8,2.2,0.9,3.1,0.2l0.1-0.2
	c0.4-0.4,0.7-1,0.7-1.6c0-0.6-0.2-1.1-0.6-1.5l-0.1-0.1C355.1,472.1,354.6,471.8,354,471.8z"/>
<path d="M329.1,445.2c-1.6,0-3.3-0.7-4.4-1.8l-0.2-0.2c-1.1-1.2-1.7-2.7-1.7-4.3c0-1.7,0.7-3.3,1.9-4.5c1.1-1.1,2.6-1.8,4.2-1.8
	l0.3,0c1.7,0,3.2,0.7,4.4,1.9c1.2,1.2,1.8,2.8,1.8,4.4c0,1.7-0.7,3.3-1.9,4.5C332.3,444.6,330.8,445.2,329.1,445.2z M328.9,436.6
	c-0.5,0-1.1,0.3-1.5,0.7c-0.5,0.4-0.7,1-0.7,1.6c0,0.6,0.2,1.1,0.6,1.5l0.1,0.1c0.9,0.9,2.4,0.9,3.3,0c0.4-0.4,0.7-1,0.7-1.6
	c0-0.6-0.2-1.2-0.7-1.6c-0.4-0.4-1-0.7-1.6-0.7L328.9,436.6z"/>
<path d="M174,488c-3.6,0-6.9-1.3-9.5-3.8l-0.3-0.3c-2.6-2.6-4.1-6.1-4.1-9.9c0-3.5,1.3-6.9,3.7-9.5l0.3-0.3c1.2-1.2,2.5-2.1,4-2.8
	v-47c0-1.5,0.6-2.9,1.7-4.1l11.4-11.4h-40.1c-6.7,0-13.2-2.8-18.3-8c-4.1-4.1-7-9.5-8.4-15.5l-0.6-2.5h33.9v-152h-34.2l-0.1-50.8
	h300.7v191.8l-0.1,7.7c-0.5,7.5-3.3,14.6-8.1,20c-5.2,5.9-12.1,9.1-19.4,9.1h-40.1l11.4,11.4c1.1,1.2,1.7,2.6,1.7,4.1v47
	c1.5,0.7,2.9,1.7,4,2.8l0.3,0.3c2.5,2.7,3.8,6,3.8,9.5c0,3.7-1.4,7.2-4.1,9.9l-0.4,0.3c-2.5,2.4-5.9,3.7-9.5,3.7
	c-3.7,0-7.2-1.4-9.8-4c-2.6-2.7-4.1-6.2-4.1-9.9c0-3.7,1.4-7.2,4.1-9.8c1.2-1.2,2.6-2.1,4.1-2.8v-44.6L330.2,399h-15l17.9,17.9
	c1.1,1.1,1.7,2.6,1.7,4.1v5.3c1.5,0.7,2.9,1.7,4,2.8c2.6,2.6,4.1,6.1,4.1,9.8c0,3.7-1.4,7.2-4.1,9.9c-2.6,2.6-6.1,4.1-9.9,4.1
	c-3.7,0-7.2-1.4-9.8-4.1l-0.3-0.4c-2.4-2.6-3.8-5.9-3.8-9.5c0-3.7,1.4-7.2,4.1-9.8c1.1-1.2,2.5-2.1,4-2.8v-2.9l-4.5-4.5L306.6,431
	v20.2c0,1.8-0.8,3.4-2.2,4.5c-1.4,1.1-3.2,1.5-4.9,1.1c-2.6-0.6-4.5-3-4.5-5.8v-22.4c0-1.5,0.6-3,1.7-4.1l13.8-13.8L298.8,399h-29.4
	v59c1.5,0.7,2.9,1.7,4,2.8c2.6,2.6,4.1,6.1,4.1,9.9c0,3.6-1.3,7-3.8,9.5l-0.2,0.2c-2.6,2.7-6.2,4.2-9.9,4.2c-3.7,0-7.2-1.4-9.8-4.1
	c-2.6-2.6-4.1-6.2-4.1-9.8c0-3.7,1.4-7.2,4.1-9.8c1.1-1.2,2.5-2.1,4-2.8v-51.7l-6.3,6.3v33.6c0,3.2-2.4,5.8-5.5,6
	c-1.6,0.1-3.1-0.5-4.3-1.6c-1.1-1.1-1.8-2.6-1.8-4.2v-36.2c0-1.7,0.7-3.2,1.9-4.3l7-7h-19.8l-11.7,11.7l13.8,13.8
	c1.1,1,1.7,2.5,1.7,4.1v22.6c0,1.8-0.8,3.4-2.2,4.5c-1.4,1.1-3.1,1.5-4.9,1.1c-2.6-0.6-4.6-3-4.6-5.8v-20l-12.2-12.1l-4.5,4.5v2.9
	c1.4,0.6,2.6,1.5,3.7,2.5l0.3,0.3c2.6,2.6,4.1,6.1,4.1,9.8c0,3.7-1.4,7.2-4.1,9.9c-2.6,2.6-6.1,4.1-9.8,4.1c-3.7,0-7.2-1.4-9.9-4.1
	c-2.6-2.7-4.1-6.2-4.1-9.9c0-3.6,1.5-7.2,4.1-9.8c1.2-1.2,2.6-2.1,4.1-2.8V421c0-1.6,0.6-3,1.7-4.1l17.9-17.9h-15l-17.9,17.9v44.6
	c1.5,0.7,2.9,1.7,4,2.8c2.6,2.6,4.1,6.1,4.1,9.8c0,3.7-1.5,7.3-4.1,9.8C181.2,486.5,177.7,488,174,488z M167,481.1l0.2,0.2
	c1.9,1.8,4.3,2.7,6.8,2.7c2.7,0,5.1-1,7-2.9c1.9-1.8,2.9-4.4,2.9-7c0-2.6-1-5.1-2.9-7c-1.1-1.1-2.4-1.9-3.8-2.4l-1.4-0.5v-49.1
	L196,395h26.3l-24.8,24.7c-0.3,0.3-0.5,0.8-0.5,1.3v8.1l-1.3,0.5c-1.5,0.5-2.8,1.3-3.9,2.4c-1.8,1.9-2.9,4.4-2.9,7
	c0,2.6,1.1,5.2,2.9,7c1.9,1.9,4.4,2.9,7,2.9c2.6,0,5.2-1.1,7-2.9c1.9-1.9,2.9-4.4,2.9-7c0-2.6-1-5.1-2.9-7l-0.2-0.2
	c-1.1-1-2.3-1.8-3.6-2.2l-1.4-0.5v-7.3l8.5-8.5l16.2,16.1V451c0,0.9,0.6,1.7,1.4,1.9c0.7,0.2,1.3-0.1,1.5-0.3
	c0.4-0.3,0.7-0.9,0.7-1.4v-22.6c0-0.5-0.2-0.9-0.5-1.2l-16.7-16.7l15.7-15.7h31.1l-14,14c-0.4,0.3-0.6,0.8-0.6,1.3v36.2
	c0,0.5,0.2,1,0.6,1.3c0.4,0.3,0.8,0.5,1.3,0.5c0.9,0,1.7-1,1.7-2v-35.3l14.3-14.4v64.1l-1.3,0.5c-1.5,0.5-2.8,1.3-3.8,2.4
	c-1.9,1.9-2.9,4.4-2.9,7c0,2.6,1.1,5.1,2.9,7c1.9,1.9,4.4,2.9,7,2.9c2.6,0,5.2-1.1,7-2.9l0.2-0.2c1.8-1.9,2.7-4.3,2.7-6.8
	c0-2.7-1-5.1-2.9-7c-1.1-1.1-2.4-1.9-3.9-2.4l-1.3-0.5V395h35l15.7,15.7l-16.7,16.7c-0.3,0.3-0.5,0.8-0.5,1.3V451
	c0,0.9,0.6,1.7,1.4,1.9c0.7,0.2,1.3-0.1,1.5-0.4c0.4-0.3,0.7-0.9,0.7-1.4v-21.8l16.1-16.1l8.5,8.5v7.3l-1.4,0.5
	c-1.4,0.5-2.8,1.3-3.8,2.4c-1.9,1.9-2.9,4.4-2.9,7c0,2.5,1,4.9,2.7,6.8l0.2,0.3c1.9,1.9,4.3,2.9,7,2.9c2.7,0,5.2-1,7-2.9
	c1.9-1.9,2.9-4.4,2.9-7c0-2.6-1-5.1-2.9-7c-1.1-1.1-2.4-1.9-3.8-2.4l-1.4-0.5V421c0-0.5-0.2-0.9-0.5-1.3L305.6,395h26.3l20.2,20.2
	v49.1l-1.4,0.5c-1.5,0.5-2.8,1.3-3.9,2.4c-1.9,1.9-2.9,4.4-2.9,7c0,2.6,1,5.1,2.9,7c1.9,1.8,4.4,2.9,7,2.9c2.5,0,4.9-0.9,6.8-2.7
	l0.3-0.2c1.9-1.9,2.9-4.3,2.9-7c0-2.5-1-4.9-2.7-6.8l-0.2-0.2c-1.1-1.1-2.4-1.9-3.8-2.4l-1.4-0.5v-49.8c0-0.5-0.2-0.9-0.6-1.3
	L336.9,395h49.8c6.1,0,12-2.8,16.4-7.8c4.1-4.7,6.6-10.9,7.1-17.5l0.1-7.5V174.3H117.6l0.1,42.8h34.2v160H119
	c1.4,4.3,3.7,8.1,6.7,11.2c4.3,4.4,9.8,6.8,15.5,6.8h49.8l-18.2,18.2c-0.3,0.3-0.5,0.8-0.5,1.3v49.8l-1.4,0.5
	c-1.4,0.5-2.8,1.3-3.8,2.4l-0.3,0.3c-1.7,1.8-2.6,4.2-2.6,6.7C164.1,476.7,165.1,479.2,167,481.1z"/>
<path d="M151.8,344.1H97.7v-28.3h54.1V344.1z M101.7,340.1h46.1v-20.3h-46.1V340.1z"/>
<rect x="115.6" y="193.7" width="213.8" height="4"/>
<rect x="198.8" y="364.1" width="213.8" height="4"/>
</svg>
