<?xml version="1.0" encoding="utf-8"?>
<!-- Generator: Adobe Illustrator 24.1.2, SVG Export Plug-In . SVG Version: 6.00 Build 0)  -->
<svg version="1.1" id="Layer_1" xmlns="http://www.w3.org/2000/svg" xmlns:xlink="http://www.w3.org/1999/xlink" x="0px" y="0px"
	 viewBox="0 0 266.1 384.2" style="enable-background:new 0 0 266.1 384.2;" xml:space="preserve">
<path d="M125.3,368.6c-3.1,0-5.7-2.6-5.6-5.7l0.4-25.2c-3.7,0.4-7.7,0.4-11.3,0.1l-0.4,24.8c0,3.1-2.6,5.6-5.6,5.6c0,0-0.1,0-0.1,0
	c-3.1,0-5.6-2.6-5.6-5.7l0.4-27.1c-7.6-2.5-14.6-6.9-20.4-12.6l-0.2-0.3c-10-10-15.5-23.2-15.5-37.2v-3.7l-22.3,0l-18.7,16
	c-2.4,2-6,1.7-8-0.6c-1-1.2-1.5-2.7-1.3-4.2c0.1-1.5,0.8-2.9,2-3.8l20.2-17.3c1-0.9,2.3-1.4,3.7-1.4l24.5,0V245H32.7
	c-3.3,0-6-2.5-6-5.7s2.7-5.7,6-5.7h28.8v-25.1c0-0.6,0-1.2,0-1.9l-22,0c-1.4,0-2.8-0.5-3.9-1.3L13.3,188c-1.3-1-2.1-2.4-2.2-4
	c-0.1-1.5,0.4-3,1.5-4.2c2.2-2.3,5.9-2.6,8.4-0.6l20.8,16.1l21.2,0c2.5-11.9,8.4-22.7,17.2-31.4c8.8-8.8,19.9-14.8,32-17.3v-0.7
	l0.1,0V108L71.6,86.9c-1.8-1-2.8-2.8-2.8-4.8l0-45.5c0-2.1,1.2-3.9,3-4.9l39.5-22.6c1.7-1,3.8-1,5.5,0l39.8,22.7
	c1.7,1,2.8,2.8,2.8,4.7l0,45.5c0,2.1-1.2,4-3.1,4.9l-40.2,21v38.6c12.1,2.5,23.1,8.4,32,17.3c8.7,8.7,14.6,19.5,17.2,31.4l18.9,0
	l21.9-16.1c2.6-1.9,6.3-1.6,8.6,0.6c1.2,1.2,1.7,2.7,1.6,4.2c-0.1,1.6-0.9,3-2.3,4l-23.7,17.4c-1.1,0.8-2.5,1.3-4,1.3l-19.8,0
	c0,0.6,0,1.2,0,1.9v25.1h29.1c3.4,0,6.2,2.5,6.2,5.7s-2.8,5.7-6.2,5.7h-29.1v25.2l19.2,0c1.4,0,2.7,0.5,3.7,1.4l20.3,17.3
	c2.3,2,2.6,5.6,0.6,8c-1,1.1-2.3,1.8-3.8,2c-1.5,0.1-3-0.4-4.1-1.3l-18.7-16l-16.8,0v3.7c0,14-5.5,27.3-15.5,37.3
	c-5.7,5.7-12.6,10-20,12.6c0,0,0,0.1,0,0.1L131,363C131,366.1,128.4,368.6,125.3,368.6z M124.1,333l-0.4,29.9c0,0.9,0.7,1.7,1.6,1.7
	c0.9,0,1.7-0.7,1.7-1.6v0l0.4-27.7c0-0.3-0.1-0.5-0.1-0.7l-0.9-2l2.1-0.7c7.5-2.3,14.4-6.5,20.1-12.1c9.2-9.3,14.3-21.5,14.3-34.5
	v-3.5H65.3v3.5c0,13,5.1,25.2,14.3,34.4l0.2,0.2c5.7,5.6,12.7,9.8,20.2,12l1.8,0.5l-0.4,1.8c0,0.1,0,0.2,0,0.3l-0.4,27.8
	c0,0.9,0.7,1.7,1.6,1.7c0,0,0,0,0,0c0.9,0,1.6-0.7,1.6-1.6l0.4-29.3l2.3,0.4c4.7,0.7,10,0.7,14.7-0.1L124.1,333z M185.2,277.5
	l19.8,17c0.3,0.3,0.8,0.4,1.2,0.4c0.4,0,0.8-0.2,1.1-0.6c0.6-0.7,0.5-1.7-0.2-2.3l-20.3-17.3c-0.3-0.3-0.7-0.4-1.1-0.4l-23.2,0V241
	h33.1c1.2,0,2.2-0.7,2.2-1.7c0-0.9-1-1.7-2.2-1.7h-33.1v-29.1c0-1.5,0-2.6-0.1-3.8l-0.1-2.1l24,0c0.4,0,1-0.1,1.6-0.5l23.7-17.4
	c0.4-0.3,0.6-0.7,0.7-1.1c0-0.4-0.1-0.7-0.4-1.1c-0.8-0.8-2.4-0.9-3.4-0.2l-23,16.9l-23.5,0l-0.3-1.6c-2.2-11.7-7.8-22.4-16.4-30.9
	c-8.1-8.1-18.1-13.6-29.1-16v126.8h48.5L185.2,277.5z M37,274.2c-0.4,0-0.8,0.1-1.1,0.4l-20.3,17.4c-0.3,0.3-0.5,0.7-0.6,1.1
	c0,0.5,0.1,0.9,0.4,1.2c0.6,0.7,1.6,0.7,2.4,0.2l19.8-17l32.5,0h41.9c0-0.4,0-0.8,0-1.3V150.8c-11,2.4-21.1,7.9-29.1,16
	c-8.5,8.5-14.2,19.2-16.4,30.9l-0.3,1.6l-25.9,0l-21.8-16.9c-0.9-0.7-2.3-0.6-3,0.2c-0.3,0.3-0.4,0.7-0.4,1.1c0,0.4,0.3,0.8,0.6,1.1
	l22.4,17.3c0.4,0.3,0.9,0.5,1.4,0.5l26.2,0l-0.1,2.1c-0.1,1.4-0.1,2.6-0.1,3.8v29.3l-2.5-0.2H32.7c-1.1,0-2,0.8-2,1.7
	c0,0.9,0.9,1.7,2,1.7h32.8v33.2L37,274.2z M114.1,12.4c-0.3,0-0.5,0.1-0.8,0.2L73.6,35.3c-0.5,0.3-0.9,0.8-0.9,1.3l0,45.5
	c0,0.5,0.3,1,0.7,1.3l40.6,21.2l40.4-21.1c0.6-0.3,0.9-0.8,0.9-1.4l0-45.5c0-0.5-0.3-1-0.8-1.3l-39.8-22.7
	C114.6,12.4,114.4,12.4,114.1,12.4z M132.8,314.7c-3.9,0-7-3.1-7-7s3.1-7,7-7c3.8,0,7,3.1,7,7S136.6,314.7,132.8,314.7z
	 M132.8,304.8c-1.6,0-3,1.3-3,3s1.3,3,3,3c1.7,0,3-1.3,3-3S134.4,304.8,132.8,304.8z M95.5,314.7c-3.8,0-7-3.1-7-7s3.1-7,7-7
	c3.8,0,7,3.1,7,7S99.3,314.7,95.5,314.7z M95.5,304.8c-1.6,0-3,1.3-3,3s1.3,3,3,3c1.6,0,3-1.3,3-3S97.1,304.8,95.5,304.8z
	 M249.1,276c-6.2,0-11.2-5-11.2-11.2c0-6.2,5-11.2,11.2-11.2c6.2,0,11.2,5,11.2,11.2C260.3,271,255.3,276,249.1,276z M249.1,257.5
	c-4,0-7.2,3.3-7.2,7.2c0,4,3.3,7.2,7.2,7.2c4,0,7.2-3.3,7.2-7.2C256.3,260.8,253.1,257.5,249.1,257.5z M81.1,259.8
	c-3,0-5.5-2.5-5.5-5.5V207c0-3,2.5-5.5,5.5-5.5c3,0,5.5,2.5,5.5,5.5v47.3C86.6,257.3,84.2,259.8,81.1,259.8z M81.1,205.4
	c-0.8,0-1.5,0.7-1.5,1.5v47.3c0,0.8,0.7,1.5,1.5,1.5c0.8,0,1.5-0.7,1.5-1.5V207C82.6,206.1,82,205.4,81.1,205.4z M195.8,153.3
	c-10.4,0-18.9-8.5-18.9-18.9s8.5-18.9,18.9-18.9s18.9,8.5,18.9,18.9S206.2,153.3,195.8,153.3z M195.8,119.4
	c-8.2,0-14.9,6.7-14.9,14.9s6.7,14.9,14.9,14.9s14.9-6.7,14.9-14.9S204,119.4,195.8,119.4z M25.1,132c-7.5,0-13.6-6.1-13.6-13.6
	s6.1-13.6,13.6-13.6c7.5,0,13.6,6.1,13.6,13.6S32.6,132,25.1,132z M25.1,108.8c-5.3,0-9.6,4.3-9.6,9.6c0,5.3,4.3,9.6,9.6,9.6
	s9.6-4.3,9.6-9.6C34.7,113.1,30.4,108.8,25.1,108.8z"/>
</svg>
