<?xml version="1.0" encoding="utf-8"?>
<!-- Generator: Adobe Illustrator 24.1.2, SVG Export Plug-In . SVG Version: 6.00 Build 0)  -->
<svg version="1.1"
	 id="svg18" xmlns:cc="http://creativecommons.org/ns#" xmlns:dc="http://purl.org/dc/elements/1.1/" xmlns:inkscape="http://www.inkscape.org/namespaces/inkscape" xmlns:rdf="http://www.w3.org/1999/02/22-rdf-syntax-ns#" xmlns:sodipodi="http://sodipodi.sourceforge.net/DTD/sodipodi-0.dtd" xmlns:svg="http://www.w3.org/2000/svg"
	 xmlns="http://www.w3.org/2000/svg" xmlns:xlink="http://www.w3.org/1999/xlink" x="0px" y="0px" viewBox="0 0 268.2 310.6"
	 style="enable-background:new 0 0 268.2 310.6;" xml:space="preserve">
<g id="security_setting_icon" transform="translate(-22.299,-22.305)">
	<g id="g14">
		<path d="M156.4,317.1c-1.7,0-3.5-0.5-4.9-1.5c-27.3-15-50.1-34.7-67.8-58.7c-33-44.1-48.9-101.6-47.3-171l0-0.1
			c0.4-4.7,4.1-8.6,8.5-9c18.1-2.6,35.3-6.8,51.3-12.4c16.9-5.9,35-14.1,55.3-25.2c3.2-1.6,6.4-1.6,9.6,0
			c19.6,10.7,38.2,19.1,55.4,25.2c16.8,5.8,33.7,9.9,51.6,12.4c4.6,0.4,8.2,4.4,8.2,9.2c1.6,69.3-14.3,126.8-47.3,170.9
			c-17.7,23.6-40.5,43.4-67.8,58.6C159.9,316.6,158.1,317.1,156.4,317.1z M40.3,86.2c-1.6,68.4,14.1,125.1,46.5,168.4
			c17.4,23.5,39.8,42.9,66.6,57.6l0.2,0.1c1.6,1.1,3.9,1.1,5.5,0l0.2-0.1c26.8-15,49.3-34.4,66.6-57.6
			c32.4-43.4,48.1-100.1,46.5-168.5l0,0c0-2.6-2.1-5-4.6-5.2l-0.1,0c-18.2-2.6-35.4-6.7-52.4-12.6c-17.4-6.2-36.3-14.7-55.9-25.4
			c-1.9-0.9-3.9-0.9-5.9,0C132.9,54,114.6,62.3,97.5,68.2c-16.2,5.7-33.8,10-52.1,12.6l-0.1,0C42.8,81.1,40.6,83.4,40.3,86.2z"/>
		<path d="M138.2,242.2c-1.5,0-3.3-0.5-4-0.8l-0.2-0.1l-11.4-5c-4.8-1.7-7.5-7-6.3-12.4l0-0.1c0.4-1.2,0.6-2.5,0.9-3.9
			c0.1-0.7,0.3-1.5,0.5-2.2c-2.8-2.3-5.6-5.1-7.9-7.9c-2.4,0.6-4.5,1.1-6.2,1.4c-4.9,1.5-10.3-1.2-12.4-6.2l-4.7-11.5
			c-2.1-5.1-0.3-10.8,4.2-13.3c1.1-0.6,2.2-1.3,3.3-2c0.7-0.5,1.5-0.9,2.3-1.4c-0.5-3.7-0.5-7.4,0-11.3c-0.2-0.1-0.5-0.3-0.7-0.4
			c-1.6-0.9-3-1.8-4.6-2.5l-0.3-0.2c-4.5-2.8-6.2-8.5-4.1-13.6l4.7-11.4c2.1-4.7,7.6-7.4,12.4-6.2c1.2,0.3,2.4,0.7,3.6,1
			c0.9,0.2,1.7,0.5,2.6,0.7c2.4-3.1,5.2-5.6,7.9-8.1c-0.2-1-0.4-1.9-0.6-2.9c-0.2-1.1-0.4-2.2-0.7-3.3c-1.3-5.1,1.4-10.4,6.2-12.4
			l11.4-4.7c4.8-2,10.6-0.2,13.2,4.2l0.2,0.4c1.1,1.9,2.1,3.7,3.1,5.3c3.7-0.2,7.6-0.2,11.4,0c1.1-1.8,2.3-3.8,3.3-5.6
			c2.6-4.4,8.5-6.2,13.3-4.2l11.4,4.7c4.8,2,7.5,7.3,6.2,12.4c-0.6,2.3-1.2,4.4-1.7,6.2c3,2.5,5.6,5.1,8.2,8.2
			c0.8-0.2,1.7-0.5,2.6-0.7c1.2-0.3,2.4-0.6,3.5-1c4.9-1.2,10.3,1.5,12.5,6.1l4.7,11.5c2.1,5,0.4,10.7-4.1,13.5l-0.3,0.2
			c-1.6,0.7-3.1,1.6-4.7,2.5c-0.2,0.1-0.5,0.3-0.7,0.4c0.5,3.7,0.5,7.6,0,11.4c0.8,0.5,1.5,0.9,2.2,1.4c1.1,0.7,2.1,1.3,3.3,2
			c4.5,2.5,6.4,8.2,4.2,13.3l-4.7,11.4c-2.1,5-7.5,7.7-12.4,6.2c-1.8-0.3-3.8-0.7-6.3-1.4c-2.5,2.8-5.1,5.5-8.2,7.9
			c0.5,2.1,1.1,4,1.7,6.1l0,0.1c1.3,5.4-1.4,10.7-6.3,12.4l-11.5,5.1c-5.1,1.7-10.7-0.3-13.1-4.6c-1.1-1.7-2.3-3.7-3.4-5.6
			c-3.7,0.5-7.6,0.5-11.3,0c-1.1,1.9-2.3,3.9-3.4,5.7C145.2,240.2,141.8,242.2,138.2,242.2z M135.6,237.6c1,0.3,2,0.5,2.7,0.5
			c2.3,0,4.3-1.2,5.7-3.4c1.2-1.8,2.3-3.8,3.5-5.8l1.2-2l1.4,0.2c4.1,0.6,8.7,0.6,12.8,0l1.4-0.2l0.9,1.6c1.2,2.1,2.5,4.4,3.7,6.2
			l0.1,0.2c1.5,2.7,5,3.8,8.3,2.8l11.5-5.1c3-1,4.5-4.2,3.7-7.7c-0.7-2.5-1.4-4.8-2-7.4l-0.3-1.3l1.1-0.8c3.5-2.5,6.3-5.6,9.3-9
			l1-1.1l1.2,0.3c2.9,0.8,5.2,1.4,7.1,1.6l0.4,0.1c2.9,1,6.3-0.7,7.6-3.9l4.7-11.4c1.3-3.2,0.3-6.7-2.5-8.2l0,0
			c-1.2-0.7-2.3-1.4-3.4-2c-1.1-0.7-2.2-1.3-3.3-2L212,179l0.2-1.4c0.6-4.2,0.6-8.6,0-12.9l-0.2-1.4l1.2-0.7
			c0.6-0.4,1.2-0.7,1.8-1.1c1.6-1,3.2-1.9,5-2.7c2.7-1.8,3.8-5.4,2.5-8.6l-4.7-11.4c-1.3-2.9-4.7-4.6-7.8-3.9
			c-1.1,0.3-2.3,0.6-3.5,1c-1.3,0.3-2.6,0.7-3.8,1l-1.3,0.4l-0.8-1c-3-3.7-5.9-6.6-9.5-9.5l-1-0.8l0.4-1.3c0.6-2.1,1.3-4.6,2-7.3
			c0.8-3.2-0.9-6.5-3.9-7.7l-11.4-4.7c-3-1.2-6.7-0.1-8.3,2.5c-1.2,2.2-2.7,4.7-4.1,6.8l-0.7,1l-1.2-0.1c-4.2-0.3-8.9-0.3-13.1,0
			l-1.2,0.1l-0.7-1c-1.3-2-2.6-4.3-3.9-6.5l-0.2-0.4c-1.6-2.6-5.3-3.8-8.2-2.5l-11.4,4.7c-3,1.2-4.7,4.6-3.9,7.7
			c0.3,1.2,0.5,2.4,0.8,3.5c0.3,1.3,0.5,2.6,0.9,3.8l0.3,1.2l-0.9,0.8c-3.2,2.9-6.6,5.9-9.1,9.4l-0.8,1.1l-1.3-0.4
			c-1.2-0.3-2.5-0.7-3.8-1c-1.2-0.3-2.4-0.7-3.6-1c-2.9-0.7-6.4,1-7.7,3.9l-4.7,11.4c-1.3,3.2-0.3,6.7,2.5,8.6
			c1.8,0.8,3.3,1.7,4.9,2.7c0.6,0.4,1.2,0.7,1.8,1.1l1.2,0.7l-0.2,1.3c-0.6,4.5-0.6,8.7,0,12.9l0.2,1.4l-1.2,0.7
			c-1.2,0.7-2.2,1.3-3.3,2c-1.1,0.7-2.2,1.4-3.4,2c-2.8,1.5-3.8,5.1-2.5,8.2l4.7,11.4c1.3,3.2,4.7,4.9,7.6,3.9l0.4-0.1
			c1.9-0.3,4.3-0.8,7.1-1.6l1.3-0.4l0.8,1c2.6,3.3,5.8,6.5,9.1,9.1l1,0.8l-0.3,1.2c-0.3,1.1-0.5,2.2-0.7,3.3c-0.3,1.4-0.6,2.7-1,4.1
			c-0.8,3.5,0.8,6.7,3.7,7.7l0.2,0.1L135.6,237.6z"/>
	</g>
</g>
<g id="Layer_1" transform="translate(-22.299,-22.305)">
</g>
<g id="DHlx2e_1_">
	<g>
		<g>
			<path d="M168.2,149.4c0.1,19.2-15.7,35-35.3,34.8c-18.8-0.2-34.6-15.7-34.3-35.3c0.2-18.8,15.7-34.6,35.3-34.3
				C152.7,114.8,168.2,130.2,168.2,149.4z M117.3,150.3c0,0.1,0,0.2,0,0.3c0.1,3.8,0.4,7.6,1.2,11.3c0.2,1.1,0.5,2.1,0.7,3.2
				c0.1,0.3,0.1,0.4,0.5,0.4c0.4,0,0.8,0,1.2,0c3.7,0,7.4,0,11.2,0c0.1,0,0.3,0,0.4,0c0-5.1,0-10.1,0-15.1
				C127.4,150.3,122.4,150.3,117.3,150.3z M132.5,148.4c0-5.1,0-10.1,0-15.1c-0.1,0-0.2,0-0.2,0c-4.2,0-8.4,0-12.6,0
				c-0.1,0-0.3,0.2-0.3,0.3c-0.3,1.3-0.6,2.6-0.9,3.9c-0.5,2.7-0.9,5.5-1,8.2c0,0.9,0,1.8,0,2.8
				C122.4,148.4,127.4,148.4,132.5,148.4z M134.3,133.3c0,5.1,0,10.1,0,15.1c5.1,0,10.1,0,15.1,0c0-0.1,0-0.3,0-0.4
				c-0.1-3.2-0.3-6.5-0.9-9.6c-0.3-1.6-0.7-3.1-1-4.7c-0.1-0.3-0.2-0.5-0.6-0.5c-0.7,0-1.3,0-2,0c-3.4,0-6.8,0-10.2,0
				C134.6,133.3,134.5,133.3,134.3,133.3z M134.3,150.3c0,5.1,0,10.1,0,15.1c0.1,0,0.2,0,0.3,0c4.2,0,8.3,0,12.5,0
				c0.3,0,0.4-0.1,0.4-0.4c0.3-1.3,0.6-2.5,0.8-3.8c0.5-2.7,0.9-5.5,1-8.2c0-0.9,0-1.8,0-2.8C144.4,150.3,139.4,150.3,134.3,150.3z
				 M151.2,148.4c5.1,0,10.1,0,15.2,0c0-0.2,0-0.3,0-0.4c-0.1-2.8-0.6-5.6-1.4-8.2c-0.7-2.2-1.5-4.2-2.6-6.2
				c-0.1-0.3-0.3-0.3-0.6-0.3c-4,0-8.1,0-12.1,0c-0.1,0-0.3,0-0.5,0C150.5,138.3,151.1,143.3,151.2,148.4z M115.5,150.3
				c-5.1,0-10.1,0-15.2,0c0,0.1,0,0.2,0,0.3c0.2,1.9,0.4,3.8,0.8,5.7c0.6,3,1.7,5.8,3.1,8.5c0.2,0.4,0.5,0.6,1,0.6
				c3.8,0,7.5,0,11.3,0c0.3,0,0.7,0,1,0C116.2,160.5,115.6,155.4,115.5,150.3z M115.5,148.5c0.1-5.1,0.7-10.2,2-15.1
				c-0.2,0-0.3,0-0.5,0c-4,0-8.1,0-12.1,0c-0.3,0-0.4,0.1-0.5,0.3c-1,1.8-1.7,3.6-2.4,5.5c-0.8,2.3-1.3,4.6-1.5,7
				c-0.1,0.8-0.1,1.6-0.2,2.4C105.4,148.5,110.5,148.5,115.5,148.5z M149.2,165.4c0.5,0,1,0,1.4,0c3.7,0,7.5,0,11.2,0
				c0.3,0,0.4-0.1,0.6-0.3c1-1.8,1.8-3.7,2.4-5.7c0.8-2.4,1.2-4.9,1.5-7.4c0.1-0.6,0.1-1.1,0.1-1.7c-5.1,0-10.1,0-15.2,0
				C151.1,155.4,150.5,160.4,149.2,165.4z M134.3,182.3c1.2-0.1,2.3-0.5,3.3-1.1c2.3-1.3,3.9-3.3,5.4-5.5c1.3-2,2.3-4.2,3.2-6.5
				c0.2-0.6,0.4-1.3,0.7-2c-4.2,0-8.4,0-12.6,0C134.3,172.3,134.3,177.3,134.3,182.3z M146.8,131.5c0-0.1,0-0.1,0-0.2
				c-1.1-3.4-2.5-6.7-4.7-9.6c-1.5-2-3.2-3.7-5.4-4.7c-0.8-0.3-1.6-0.5-2.4-0.7c0,5.1,0,10.1,0,15.1
				C138.5,131.5,142.7,131.5,146.8,131.5z M132.5,116.4c-1.2,0.1-2.3,0.5-3.4,1.1c-2.1,1.2-3.7,3-5,5c-1.5,2.2-2.6,4.6-3.5,7
				c-0.2,0.6-0.4,1.2-0.7,1.9c4.2,0,8.4,0,12.6,0C132.5,126.5,132.5,121.5,132.5,116.4z M132.5,167.2c-4.2,0-8.4,0-12.6,0
				c0.1,0.4,0.3,0.7,0.4,1c1.1,3.1,2.4,6,4.3,8.7c1.5,2,3.2,3.8,5.6,4.8c0.7,0.3,1.5,0.5,2.3,0.7
				C132.5,177.3,132.5,172.3,132.5,167.2z M126.5,181.6c-1.8-1.5-3.2-3.3-4.5-5.3c-1.7-2.8-3-5.7-3.9-8.8c-0.1-0.3-0.2-0.3-0.5-0.3
				c-0.9,0-1.7,0-2.6,0c-3,0-6,0-9.1,0c-0.1,0-0.2,0-0.4,0C110.7,174.9,117.6,179.7,126.5,181.6z M105.6,131.5c0.2,0,0.3,0,0.4,0
				c3.9,0,7.8,0,11.7,0c0.2,0,0.4-0.1,0.4-0.3c0.7-1.9,1.4-3.7,2.2-5.6c1-2.3,2.4-4.5,4-6.4c0.7-0.8,1.4-1.5,2-2.2
				C117.6,119.1,110.7,123.9,105.6,131.5z M161.1,131.5c-2.2-3.4-4.9-6.3-8-8.6c-3.9-2.9-8.2-4.8-12.9-5.8c0,0.1,0.1,0.1,0.2,0.2
				c2.1,1.7,3.7,3.9,5,6.2c1.4,2.4,2.4,5,3.2,7.7c0.1,0.2,0.2,0.3,0.4,0.3c0.9,0,1.9,0,2.8,0c2.9,0,5.8,0,8.7,0
				C160.7,131.5,160.9,131.5,161.1,131.5z M140.3,181.6c4.9-0.9,11.2-3.7,16.4-8.9c1.7-1.7,3.2-3.5,4.4-5.5c-0.1,0-0.1-0.1-0.2-0.1
				c-4,0-8,0-12,0c-0.1,0-0.3,0.2-0.4,0.3c-0.7,1.8-1.4,3.7-2.2,5.5c-0.9,2.1-2.2,4.2-3.7,5.9C142,179.9,141.1,180.8,140.3,181.6z"
				/>
			<path d="M133.3,184.7c-0.1,0-0.3,0-0.4,0c-19.4-0.2-35.1-16.3-34.8-35.8c0.1-9.4,3.9-18.2,10.7-24.8c6.8-6.6,15.7-10.1,25.2-10
				c19.2,0.3,34.8,16.1,34.8,35.3c0,9.5-3.7,18.4-10.4,25.1C151.6,181.1,142.7,184.7,133.3,184.7z M133.4,115.1
				c-9,0-17.5,3.4-24,9.7c-6.6,6.4-10.3,15-10.4,24.1c-0.2,18.9,15,34.6,33.8,34.8c9.3,0.1,18-3.4,24.6-10
				c6.6-6.5,10.2-15.2,10.1-24.3v0c0-18.7-15.1-34-33.8-34.3C133.7,115.1,133.6,115.1,133.4,115.1z M133,183.1l-0.6-0.2
				c-0.3-0.1-0.5-0.1-0.8-0.2c-0.6-0.2-1.1-0.3-1.6-0.5c-2.2-0.9-4-2.5-5.8-5c-1.8-2.4-3.2-5.3-4.4-8.8c-0.1-0.2-0.2-0.4-0.2-0.7
				l-0.4-1H133V183.1z M120.6,167.7c0,0.1,0.1,0.2,0.1,0.3c1.2,3.4,2.6,6.2,4.3,8.5c1.7,2.3,3.4,3.8,5.4,4.6
				c0.5,0.2,0.9,0.3,1.5,0.5c0,0,0.1,0,0.1,0v-14H120.6z M133.8,182.9v-16.2h13.8l-0.4,1.3c-0.1,0.5-0.3,0.9-0.5,1.4
				c-1,2.7-2.1,4.8-3.2,6.6c-1.7,2.6-3.5,4.4-5.5,5.6c-1.1,0.7-2.3,1-3.5,1.2L133.8,182.9z M134.8,167.7v14c0.9-0.2,1.7-0.5,2.6-1
				c1.9-1.1,3.5-2.8,5.2-5.3c1.1-1.8,2.1-3.8,3.2-6.4c0.2-0.4,0.3-0.9,0.4-1.3l0,0H134.8z M128.4,182.6l-2-0.4
				c-8.9-2-16-6.9-21.2-14.6l-0.5-0.7l1-0.1c0.1,0,0.2,0,0.3,0c3,0,6,0,9.1,0c0.4,0,0.7,0,1.1,0c0.5,0,1,0,1.5,0
				c0.5,0,0.8,0.2,1,0.7c1,3.3,2.3,6.2,3.9,8.7c1.3,2.1,2.7,3.8,4.4,5.2L128.4,182.6z M106.5,167.7c4.7,6.6,10.7,10.9,18.2,13
				c-1.1-1.2-2.2-2.5-3.1-4.1c-1.6-2.6-2.9-5.5-4-8.9c-0.5,0-1,0-1.5,0c-0.4,0-0.7,0-1.1,0C112.2,167.7,109.4,167.7,106.5,167.7z
				 M138.9,182.4l1.1-1.1c0.3-0.3,0.5-0.5,0.8-0.8c0.6-0.6,1.2-1.2,1.7-1.8c1.4-1.7,2.6-3.6,3.6-5.8c0.5-1.2,1-2.4,1.4-3.6
				c0.2-0.7,0.5-1.3,0.8-2c0.1-0.3,0.5-0.6,0.8-0.6c3.8,0,7.6,0,11.3,0h0.7l0.7,0.3l-0.2,0.5c-1.2,2-2.7,3.8-4.5,5.6
				c-6.5,6.5-13.8,8.5-16.6,9L138.9,182.4z M149.1,167.7c-0.3,0.6-0.5,1.3-0.8,1.9c-0.4,1.2-0.9,2.4-1.4,3.6c-1,2.3-2.3,4.3-3.8,6.1
				c-0.4,0.5-0.9,1-1.3,1.4c3.3-0.9,9.2-3.1,14.5-8.4c1.5-1.5,2.8-3.1,3.9-4.7C156.5,167.7,152.8,167.7,149.1,167.7z M147.1,166
				C147.1,166,147.1,166,147.1,166c-3.2,0-6.4,0-9.6,0l-2.9,0c-0.1,0-0.1,0-0.2,0l-0.5,0l-0.1-0.5v-15.6h16v0.5c0,0.3,0,0.6,0,0.9
				c0,0.6,0,1.3,0,1.9c-0.1,2.8-0.5,5.6-1,8.3c-0.2,0.8-0.4,1.7-0.5,2.5c-0.1,0.4-0.2,0.9-0.3,1.3C147.9,165.8,147.4,166,147.1,166z
				 M134.8,164.9l2.7,0c3.2,0,6.3,0,9.5,0c0.1-0.5,0.2-0.9,0.3-1.3c0.2-0.8,0.4-1.6,0.5-2.5c0.5-2.6,0.8-5.4,1-8.2
				c0-0.6,0-1.2,0-1.9c0-0.1,0-0.3,0-0.4h-14V164.9z M120.9,166c-0.1,0-0.3,0-0.4,0c-0.2,0-0.5,0-0.7,0c-0.4,0-0.9-0.1-1-0.8
				c-0.1-0.4-0.2-0.9-0.3-1.3c-0.1-0.6-0.3-1.2-0.4-1.9c-0.7-3.4-1.1-7.1-1.2-11.4l0-0.2l0-0.6H133v16.1l-0.6,0c-0.1,0-0.2,0-0.3,0
				L120.9,166C120.9,166,120.9,166,120.9,166z M120.1,164.9c0.1,0,0.3,0,0.4,0c0.1,0,0.3,0,0.4,0l11.1,0v-14.2h-14.1
				c0.1,4.1,0.5,7.7,1.2,11c0.1,0.6,0.3,1.2,0.4,1.8c0.1,0.4,0.2,0.9,0.3,1.3C119.8,164.9,119.9,164.9,120.1,164.9z M105.2,166
				c-0.7,0-1.1-0.3-1.4-0.9c-1.6-3.1-2.6-5.9-3.1-8.6c-0.2-1.3-0.4-2.7-0.6-4c-0.1-0.6-0.1-1.2-0.2-1.7c0-0.1,0-0.2,0-0.3l0-0.6H116
				l0,0.5c0.1,5.6,0.8,10.5,2,15l0.2,0.6l-4.4,0C111,165.9,108.1,165.9,105.2,166C105.2,166,105.2,166,105.2,166z M100.9,150.8
				c0.1,0.5,0.1,1,0.2,1.5c0.1,1.3,0.3,2.7,0.5,4c0.5,2.6,1.5,5.4,3,8.3c0.2,0.3,0.3,0.3,0.6,0.4c2.9,0,5.7,0,8.6,0l3.1,0
				c-1.1-4.3-1.7-9-1.8-14.2H100.9z M161.8,166C161.8,166,161.8,166,161.8,166c-3.1,0-6.2,0-9.3,0h-3.9l0.2-0.6
				c1.2-4.7,1.9-9.6,2-15l0-0.5h16.2l-0.1,1.1c0,0.4,0,0.8-0.1,1.2c-0.2,2.7-0.7,5.2-1.5,7.5c-0.7,2-1.5,4-2.5,5.8
				C162.5,165.9,162.1,166,161.8,166z M154.4,164.9c2.5,0,5,0,7.5,0l0.1-0.1c1-1.8,1.8-3.7,2.4-5.6c0.7-2.3,1.2-4.7,1.4-7.3
				c0-0.4,0-0.7,0.1-1.1l0,0h-14.2c-0.1,5.1-0.7,9.7-1.8,14.1h2.6C153.1,164.9,153.7,164.9,154.4,164.9z M116,149H99.8l0.1-1.3
				c0-0.5,0.1-1.1,0.1-1.6c0.2-2.4,0.7-4.8,1.5-7.1c0.6-1.9,1.4-3.8,2.4-5.5c0.3-0.5,0.7-0.6,1-0.6c0,0,0,0,0,0c3.3,0,6.6,0,9.9,0
				l3.4,0l-0.2,0.6c-1.2,4.7-1.9,9.6-2,15L116,149z M100.9,148H115c0.1-5.1,0.7-9.7,1.8-14.1l-2.1,0c-3.3,0-6.6,0-9.9,0
				c-1,1.8-1.8,3.6-2.4,5.4c-0.8,2.3-1.2,4.6-1.5,6.9c0,0.5-0.1,1.1-0.1,1.6L100.9,148z M133,148.9h-16v-0.5c0-0.3,0-0.6,0-0.9
				c0-0.6,0-1.3,0-1.9c0.1-2.8,0.5-5.6,1-8.3c0.2-1.1,0.5-2.3,0.8-3.4l0.1-0.5c0.1-0.3,0.4-0.7,0.8-0.7c3.9,0,7.7,0,11.6,0l1.1,0
				c0.1,0,0.1,0,0.2,0l0.5,0l0.1,0.5V148.9z M117.9,147.9h14v-14.1l-0.8,0c-3.8,0-7.6,0-11.4,0l-0.1,0.4c-0.3,1.1-0.5,2.2-0.7,3.3
				c-0.5,2.7-0.8,5.4-1,8.2c0,0.6,0,1.2,0,1.9C117.9,147.7,117.9,147.8,117.9,147.9z M119.6,133.8
				C119.6,133.8,119.6,133.8,119.6,133.8C119.6,133.8,119.6,133.8,119.6,133.8z M166.9,148.9h-16.2l0-0.5c-0.1-5.4-0.7-10.3-2-15
				l-0.2-0.6l0.8,0c0.1,0,0.2,0,0.3,0l3.6,0c2.8,0,5.7,0,8.5,0c0,0,0,0,0,0c0.3,0,0.7,0.1,1,0.6c1.1,2,2,4.1,2.6,6.3
				c0.8,2.6,1.3,5.4,1.4,8.4c0,0.1,0,0.2,0,0.3L166.9,148.9z M151.7,147.9h14.2c-0.1-2.8-0.6-5.5-1.4-8c-0.7-2.1-1.5-4.2-2.6-6.1
				c0,0,0,0-0.1,0c0,0,0,0,0,0c-2.8,0-5.7,0-8.5,0l-3.5,0C151,138.2,151.6,142.9,151.7,147.9z M149.9,148.9h-16.1v-16.1l11.8,0
				c0.5,0,0.9,0,1.4,0c0.6,0,1,0.3,1.1,0.9c0.1,0.6,0.2,1.2,0.4,1.8c0.2,1,0.4,1.9,0.6,2.9c0.5,2.9,0.8,5.9,0.9,9.7l0,0.2
				L149.9,148.9z M134.8,147.9h14.1c-0.1-3.7-0.4-6.6-0.9-9.4c-0.2-1-0.4-1.9-0.6-2.9c-0.1-0.6-0.3-1.2-0.4-1.8c0,0,0,0,0-0.1
				c0,0,0,0-0.1,0c-0.5,0-0.9,0-1.4,0l-10.7,0V147.9z M151.8,132.1c-0.4,0-0.8,0-1.2,0c-0.5,0-1,0-1.5,0c-0.5,0-0.8-0.2-0.9-0.7
				c-0.9-2.8-1.9-5.3-3.2-7.6c-1.5-2.7-3.1-4.6-4.9-6.1c-0.1-0.1-0.3-0.2-0.3-0.4l-0.3-0.8l0.9,0.2c4.7,0.9,9.2,2.9,13.1,5.9
				c3.2,2.4,5.9,5.3,8.2,8.7l0.5,0.8L151.8,132.1C151.8,132.1,151.8,132.1,151.8,132.1z M149.1,131c0.5,0,1,0,1.5,0
				c0.4,0,0.9,0,1.3,0l8.4,0c-2.1-3-4.5-5.6-7.4-7.7c-3.3-2.5-7-4.2-10.9-5.3c1.4,1.4,2.7,3.1,3.9,5.3
				C147.1,125.6,148.2,128.1,149.1,131z M117.7,132l-11.7,0c-0.1,0-0.2,0-0.3,0l-1-0.1l0.5-0.7c5.2-7.7,12.3-12.6,21.1-14.6l1.6-0.4
				l-1.7,1.8c-0.5,0.5-1,1-1.4,1.6c-1.6,1.8-2.9,3.9-4,6.2c-0.6,1.4-1.1,2.8-1.6,4.2l-0.5,1.4C118.4,131.8,118.1,132,117.7,132z
				 M106.5,131l11.1,0l0.5-1.3c0.5-1.4,1-2.8,1.7-4.2c1.1-2.4,2.5-4.6,4.1-6.5c0.3-0.3,0.6-0.7,0.9-1
				C117.3,120.1,111.2,124.5,106.5,131z M133,132h-13.8l0.4-1.3c0.2-0.5,0.3-0.9,0.5-1.3c1.1-2.9,2.2-5.1,3.6-7.1
				c1.6-2.4,3.3-4,5.2-5.1c1.1-0.7,2.3-1.1,3.5-1.2l0.6-0.1V132z M120.6,131H132v-14c-0.9,0.2-1.8,0.5-2.6,1c-1.8,1-3.3,2.6-4.9,4.8
				c-1.3,1.9-2.4,4.1-3.5,6.9C120.9,130.2,120.7,130.6,120.6,131z M146.8,132h-13v-16.2l0.6,0.1c1,0.1,1.8,0.4,2.5,0.7
				c2.1,1,3.9,2.5,5.6,4.9c1.9,2.6,3.4,5.7,4.7,9.7c0,0.1,0,0.2,0,0.2l0,0.5L146.8,132z M134.8,131h11.4c-1.2-3.7-2.7-6.5-4.4-8.9
				c-1.6-2.2-3.3-3.7-5.2-4.5c-0.5-0.2-1.1-0.4-1.7-0.5V131z"/>
		</g>
	</g>
</g>
</svg>
