<?xml version="1.0" encoding="utf-8"?>
<!-- Generator: Adobe Illustrator 24.1.2, SVG Export Plug-In . SVG Version: 6.00 Build 0)  -->
<svg version="1.1" id="Layer_1" xmlns="http://www.w3.org/2000/svg" xmlns:xlink="http://www.w3.org/1999/xlink" x="0px" y="0px"
	 viewBox="0 0 512 512" style="enable-background:new 0 0 512 512;" xml:space="preserve">
<style type="text/css">
	.st0{fill-rule:evenodd;clip-rule:evenodd;fill:none;stroke:#000000;stroke-width:4;stroke-linejoin:round;stroke-miterlimit:10;}
</style>
<path class="st0" d="M449.2,169c-3-3.1-7.3-4.9-11.9-4.9c-4.7,0-8.9,1.9-11.9,4.9c-3,3.1-4.9,7.3-4.9,11.9c0,4.6,1.9,8.9,4.9,11.9
	c3,3,7.3,4.9,11.9,4.9c4.7,0,8.9-1.9,11.9-4.9c3-3.1,4.9-7.3,4.9-11.9C454.1,176.2,452.2,172,449.2,169z"/>
<path class="st0" d="M74.5,151.1c-3-3.1-7.3-4.9-11.9-4.9c-4.7,0-8.9,1.9-11.9,4.9c-3.1,3.1-4.9,7.3-4.9,11.9
	c0,4.7,1.9,8.9,4.9,11.9c3,3.1,7.3,4.9,11.9,4.9c4.7,0,8.9-1.9,11.9-4.9c3.1-3.1,5-7.3,5-11.9C79.5,158.4,77.6,154.2,74.5,151.1z"/>
<path class="st0" d="M134.2,408.2c-3-3.1-7.3-5-11.9-5c-4.7,0-8.9,1.9-11.9,5c-3,3-4.9,7.3-4.9,11.9s1.9,8.9,4.9,11.9
	c3,3.1,7.3,5,11.9,5c4.7,0,8.9-1.9,11.9-5c3.1-3.1,5-7.3,5-11.9c0-4.6-1.8-8.7-4.8-11.7L134.2,408.2z"/>
<path class="st0" d="M397.1,311.8l-0.2-0.4l-37.3-67.1c-0.1-0.2-0.3-0.4-0.3-0.6l-11-19.8L221.1,444.4h249.6L397.1,311.8z"/>
<rect x="336.3" y="285" class="st0" width="19.2" height="100.9"/>
<rect x="336.3" y="411.6" class="st0" width="19.2" height="15.8"/>
<path d="M249.9,394.5c0-19.9,0-39.6,0-59.4c11.5,0,22.9,0,34.3,0l4.7-8.1c-12.6,0-25.1,0-37.7-0.1c-0.4,0-0.7,0-1.2-0.1
	c0-23.1,0-46.1,0-69.2c23.2,0,46.1,0,68.8,0c0,4.3,0.2,8.5,0,12.7c-0.1,1.9-0.2,3.7-0.3,5.6l8.9-15.4c0-0.9,0-1.8,0.1-2.8
	c0.5,0,1,0,1.5,0l4.9-8.5c-2.2,0-4.3,0-6.4,0c-0.4-23.4-3.1-46.4-9.2-69.2c0.9,0,1.6-0.1,2.2-0.1c18.5,0,37,0.1,55.4,0.1
	c1.2,0,1.9,0.3,2.6,1.4c5,9.1,8.9,18.6,11.9,28.5c3.8,12.3,5.8,24.9,6.4,37.7c0,0.5,0,1,0,1.7c-11.5,0-22.9,0-34.4,0l4.7,8.5
	c9.9,0,19.8,0,29.7,0c-0.1,2.6-0.2,5.2-0.4,7.8c-1,11.3-3.1,22.4-6.5,33.3l5.4,9.7c6.3-17.2,9.8-35.8,9.7-55
	c0.1-87.7-70.9-158-156.8-159.2c-89.9-1.2-160.6,71.1-161.6,157c-1,88.3,68.9,158.2,153,161.3L249.9,394.5z M319.2,247.4
	c0,0.5,0,1,0,1.7c-23.1,0-46.1,0-69.2,0c0-22.9,0-45.9,0-69.2c0.7,0,1.4,0,2,0c15.6,0,31.2,0,46.8,0c3,0,6,0.1,9,0
	c1.7-0.1,2.4,0.5,2.7,2.1c1.5,7.2,3.2,14.3,4.5,21.5C317.7,217.9,318.8,232.6,319.2,247.4z M336,132.3
	c14.5,10.8,26.7,23.8,36.8,39.4c-1.2,0-2,0-2.7,0c-13.3,0-26.5,0.1-39.8,0.1c-4.3,0-8.5-0.1-12.8-0.1c-1.1,0-1.7-0.4-2-1.5
	c-3.7-12.2-8.5-24-14.8-35.1c-6.1-10.8-13.3-20.7-22.9-28.6c-0.3-0.2-0.7-0.4-0.8-0.8C298.7,110.2,318.3,119.1,336,132.3z
	 M249.9,102.6c3.9,0.5,7.5,1.4,11,3c10.4,4.7,18.2,12.5,24.9,21.5c9.8,13.3,16.3,28.2,21.4,43.7c0.1,0.2,0.1,0.5,0.1,0.8
	c-19.1,0-38.2,0-57.4,0C249.9,148.6,249.9,125.7,249.9,102.6z M241.5,404.5c-3.7-1.1-7.2-1.9-10.5-3.3c-10.8-4.6-18.8-12.7-25.6-22
	c-8.8-12.1-15-25.5-19.8-39.6c-0.5-1.5-1.1-2.9-1.7-4.6c19.3,0,38.3,0,57.6,0C241.5,358.1,241.5,381.1,241.5,404.5z M241.5,326.8
	c-0.7,0-1.3,0.1-1.9,0.1c-17,0-34,0.1-51.1,0.1c-1.8,0-3.6-0.2-5.3,0c-1.5,0.2-1.9-0.5-2.1-1.7c-1.1-4.8-2.2-9.7-3.2-14.5
	c-3.6-17-5.1-34.2-5.5-51.6c0-0.4,0-0.9,0-1.5c23.2,0,46.2,0,69.3,0C241.5,280.6,241.5,303.6,241.5,326.8z M172.7,236.5
	c0.6-12.7,2.1-25.3,4.5-37.7c1.2-5.9,2.6-11.8,4-17.7c0.1-0.5,0.9-1.3,1.4-1.3c19.3,0,38.5,0,57.8,0c0.3,0,0.6,0,1.1,0.1
	c0,23,0,46,0,69.2c-23.1,0-46.1,0-68.8,0C172.7,244.8,172.5,240.6,172.7,236.5z M241.5,102.6c0,23,0,46,0,69.1
	c-19.2,0-38.2,0-57.6,0c1.1-3.1,2-6,3.1-8.8c4.2-11.3,9.3-22.2,16.1-32.2c6.2-9.1,13.4-17.2,23-22.8
	C230.9,105.1,235.9,103.2,241.5,102.6z M213.7,105.6c-2.9,3.2-6.2,6.6-9.4,10.2c-7.7,8.7-13.8,18.5-18.5,29.1
	c-3.7,8.3-6.7,16.9-9.9,25.4c-0.4,1.1-1,1.4-2.1,1.4c-17.8,0-35.6,0-53.4,0c-0.5,0-1-0.1-1.9-0.2
	C142.1,136.8,173.7,114.8,213.7,105.6z M95.4,238.2c1-10.9,3.3-21.6,6.8-32.1c2.9-8.7,6.5-17,10.9-25c0.6-1,1.2-1.3,2.4-1.3
	c18.5,0,37,0,55.5,0c0.7,0,1.4,0,2.3,0c-6,22.8-8.7,45.8-9.1,69.3c-23.2,0-46.2,0-69.5,0C94.9,245.4,95.1,241.8,95.4,238.2z
	 M112.2,324.1c-6.4-12.3-11.5-25.2-14.1-38.8c-1.6-8.7-2.3-17.5-3.5-26.3c-0.1-0.4,0-0.9,0-1.5c23.1,0,46.1,0,69.4,0
	c0.5,23.5,3,46.5,9.2,69.3c-1.8,0-3.3,0-4.8,0c-17.2,0-34.4-0.1-51.6,0.1C114.4,327,113.3,326.1,112.2,324.1z M118.7,335.2
	c0.9-0.1,1.4-0.2,1.8-0.2c13.8,0,27.7-0.1,41.5-0.1c4,0,7.9,0.1,11.9,0.1c1.2,0,1.8,0.4,2.2,1.6c4.3,14.2,10.1,27.7,17.9,40.3
	c5.6,9,12.2,17.2,20.5,24.1C173.8,391.9,142.1,369.9,118.7,335.2z"/>
<g>
	<path d="M236.1,446.4h-15c-0.7,0-1.4-0.4-1.7-1c-0.4-0.6-0.4-1.4,0-2l7.5-13l3.5,2l-5.8,10h11.5V446.4z"/>
	<path d="M257.1,386.1l-3.5-2l16-27.8l3.5,2L257.1,386.1z M299.8,312l-3.5-2l16-27.8l3.5,2L299.8,312z"/>
	<path d="M353.9,238l-5.6-10l-5.7,9.9l-3.5-2l7.5-13c0.4-0.6,1-1,1.7-1c0.7,0,1.4,0.4,1.7,1l7.3,13.1L353.9,238z"/>
	<rect x="383.9" y="277.1" transform="matrix(0.8742 -0.4855 0.4855 0.8742 -92.9989 223.9943)" width="4" height="28.8"/>
	<path d="M423.4,361.1C423.4,361.1,423.4,361.1,423.4,361.1c-0.7,0-1.4-0.4-1.7-1l-7.3-13.1l3.5-1.9l5.6,10c1.8-3.3,3.6-6.7,5.2-10
		l3.6,1.8c-2.2,4.5-4.6,9-7.1,13.4C424.8,360.7,424.1,361.1,423.4,361.1z"/>
	<path d="M245.5,463.4c-2.7,0-5.4-0.1-8.2-0.2l0.2-4c9.5,0.4,19.2,0.1,28.7-0.9l0.4,4C259.6,463.1,252.5,463.4,245.5,463.4z
		 M189.3,455.6c-9.4-2.6-18.6-6-27.5-9.9l1.6-3.7c8.7,3.9,17.8,7.1,27,9.7L189.3,455.6z M108,411.2c-3.5-3.1-6.9-6.3-10.1-9.6
		l2.8-2.8c3.1,3.2,6.4,6.3,9.7,9.2 M68,363.2c-5-8.3-9.5-17.1-13.3-26l3.7-1.6c3.7,8.8,8.1,17.4,13,25.5L68,363.2z M448.3,300.8
		l-3.9-0.9c2.1-9.3,3.5-18.9,4.2-28.4l4,0.3C451.8,281.6,450.4,291.3,448.3,300.8z M41.1,290.4c-1.6-9.6-2.6-19.4-2.8-29.1l4-0.1
		c0.3,9.5,1.2,19.1,2.8,28.6L41.1,290.4z M446.6,223.9c-1.5-9.4-3.7-18.8-6.5-27.9l3.8-1.2c2.9,9.3,5.1,18.9,6.6,28.5L446.6,223.9z
		 M46.6,213.7l-3.9-0.8c2-9.5,4.7-19,8.1-28.1l3.8,1.4C51.2,195,48.6,204.3,46.6,213.7z M420.8,152.3c-4.9-8.2-10.3-16.1-16.3-23.6
		l3.1-2.5c6.1,7.6,11.7,15.7,16.6,24L420.8,152.3z M76.1,143.5l-3.3-2.2c1.7-2.5,3.4-5,5.2-7.5c4-5.4,8.2-10.7,12.6-15.7l3,2.7
		c-4.3,4.9-8.5,10.1-12.4,15.4C79.4,138.6,77.7,141,76.1,143.5z M370.5,95.2c-1.7-1.3-3.3-2.6-5-3.8c-6-4.4-12.4-8.5-18.8-12.2
		l2-3.5c6.6,3.8,13,7.9,19.2,12.4c1.7,1.3,3.5,2.6,5.1,3.9L370.5,95.2z M129.2,89l-2.3-3.3c8-5.6,16.4-10.6,25.1-15l1.8,3.6
		C145.3,78.6,137,83.6,129.2,89z M302.7,60.5c-9.2-2.7-18.6-4.7-28-6.1l0.6-4c9.6,1.4,19.3,3.5,28.6,6.2L302.7,60.5z M198.7,57.9
		l-0.9-3.9c9.5-2.2,19.2-3.8,28.9-4.7l0.4,4C217.5,54.2,207.9,55.7,198.7,57.9z"/>
	<path d="M314.3,451.7L313,448c1.4-0.5,2.9-1,4.3-1.6h-4.7v-4h15c0.9,0,1.8,0.7,2,1.6c0.2,0.9-0.3,1.9-1.2,2.2
		C323.8,448.2,319,450.1,314.3,451.7z"/>
	<rect x="265.5" y="442.4" width="17.6" height="4"/>
</g>
</svg>
