<?xml version="1.0" encoding="utf-8"?>
<!-- Generator: Adobe Illustrator 24.1.2, SVG Export Plug-In . SVG Version: 6.00 Build 0)  -->
<svg version="1.1" id="Layer_1" xmlns="http://www.w3.org/2000/svg" xmlns:xlink="http://www.w3.org/1999/xlink" x="0px" y="0px"
	 viewBox="0 0 512 512" style="enable-background:new 0 0 512 512;" xml:space="preserve">
<style type="text/css">
	.st0{fill-rule:evenodd;clip-rule:evenodd;fill:none;stroke:#000000;stroke-width:4;stroke-miterlimit:10;}
	.st1{fill-rule:evenodd;clip-rule:evenodd;}
</style>
<path class="st0" d="M134,295.4h247.2v-7c0-4.1-1.7-7.9-4.4-10.6c-2.7-2.7-6.5-4.4-10.6-4.4h-28.9h-0.1h-0.1H176.9h-0.1h0h-27.9
	c-4.1,0-7.9,1.7-10.5,4.4c-2.7,2.7-4.4,6.5-4.4,10.6V295.4z"/>
<path class="st0" d="M309.5,370.8c3.6,0,7.1,0.8,10.3,2.4c1.7,0.8,3.4,1.9,4.9,3.1c1.5-1.2,3.1-2.3,4.9-3.1
	c3.1-1.5,6.6-2.4,10.2-2.4c6.5,0,12.4,2.6,16.7,6.9l0.2,0.2c4.1,4.3,6.7,10.1,6.7,16.4c0,6.5-2.6,12.4-6.9,16.7
	c-4.2,4.3-10.2,6.9-16.7,6.9c-3.7,0-7.1-0.8-10.3-2.4c-1.7-0.8-3.4-1.9-4.8-3.1c-1.5,1.2-3.1,2.3-4.9,3.1c-3.1,1.5-6.6,2.4-10.3,2.4
	c-6.5,0-12.4-2.6-16.7-6.9l-0.2-0.2c-4.1-4.3-6.7-10.1-6.7-16.4c0-6.5,2.6-12.4,6.9-16.7C297.1,373.5,303,370.8,309.5,370.8z"/>
<path class="st0" d="M381.1,333H134v92.1c0,4.1,1.7,7.9,4.4,10.5c2.7,2.7,6.5,4.4,10.6,4.4h217.3c4.1,0,7.9-1.7,10.5-4.4
	c2.7-2.7,4.4-6.4,4.4-10.6L381.1,333L381.1,333z"/>
<path class="st0" d="M274,130.9c-4.2-4.2-10-6.8-16.4-6.8c-6.4,0-12.2,2.6-16.4,6.8c-4.2,4.2-6.8,10-6.8,16.4c0,4.1,1.1,8,2.9,11.3
	c1.9,3.3,4.6,6.2,7.8,8.3c1.7,0.8,2.8,2.6,2.8,4.6v31.2h19.3v-31.2c0-1.7,0.9-3.4,2.5-4.4c3.4-2.1,6.2-5,8.1-8.5
	c1.9-3.3,2.9-7.2,2.9-11.3C280.7,140.9,278.2,135,274,130.9z"/>
<path class="st0" d="M152.4,171.1c-0.7-25-0.4-50.4-0.1-75.7l0.1-9.5c0.1-2.4,2.1-4.2,4.4-4.2c17.1,0.6,34-1.1,50.3-4.9
	c16.1-3.8,31.8-9.7,47-17.8c1.3-0.7,2.9-0.7,4.3,0.1c14.7,9,30.7,14.9,47.4,18.3c16.8,3.5,34.2,4.5,51.7,3.8h0.1
	c2.4,0,4.3,1.9,4.3,4.3c0.2,15.6,0.5,29.4,0.8,41.7c2.1,87.2,2.2,94.6-55.7,146.2"/>
<path class="st0" d="M335.5,273.4c48.3-45.2,48-59.9,46.4-149.4c-0.3-18.6-0.7-40.2-0.8-64.3c-24.6,3.2-47.5,3.2-68.1-0.6
	c-21.1-3.9-39.9-11.8-55.8-24.5c-18.9,12.1-38.8,20.3-59.8,24.5c-20.4,4.1-41.8,4.3-64.3,0.7c0,17.6-0.2,35.6-0.3,51.7
	c-0.9,102.2-1.1,118.5,45.7,161.9"/>
<path class="st1" d="M162.5,387.4c-2.1,0-3.7-1.9-3.7-4.3c0-2.4,1.7-4.3,3.7-4.3h40.3c2.1,0,3.8,1.9,3.8,4.3c0,2.4-1.7,4.3-3.8,4.3
	H162.5z"/>
<path class="st1" d="M162.5,414.5c-2.1,0-3.7-1.9-3.7-4.3c0-2.4,1.7-4.3,3.7-4.3h87.7c2.1,0,3.7,2,3.7,4.3c0,2.4-1.7,4.3-3.7,4.3
	H162.5z"/>
<polygon class="st0" points="381.1,295.5 134,295.5 134,333 381.1,333 381.1,295.5 "/>
<g id="Layer_1_1_">
</g>
</svg>
