<svg id="Material_Expand" data-name="Material Expand" xmlns="http://www.w3.org/2000/svg" viewBox="0 0 64 64"><path d="M58.13,32.93h-5.6V26.4a1.87,1.87,0,0,0-1.86-1.87H17.93V19.87A14.13,14.13,0,0,1,32,5.89c8.11,0,14.07,7.28,14.07,14h1.8a15.87,15.87,0,0,0-31.74,0v4.66h-2.8a1.87,1.87,0,0,0-1.86,1.87v6.53H5.87A1.87,1.87,0,0,0,4,34.8V49.73A1.87,1.87,0,0,0,5.87,51.6h5.6v6.53A1.87,1.87,0,0,0,13.33,60H50.67a1.87,1.87,0,0,0,1.86-1.87V51.6h5.6A1.87,1.87,0,0,0,60,49.73V34.8A1.87,1.87,0,0,0,58.13,32.93Zm-44.8-6.51H50.67v6.51H13.33ZM50.67,58.19H13.33V51.6H50.67Zm7.6-8.46H5.73V34.8H58.27Z"/><rect x="11.47" y="40.4" width="3.73" height="3.73"/><rect x="18.93" y="40.4" width="3.73" height="3.73"/><rect x="26.4" y="40.4" width="3.73" height="3.73"/><rect x="33.87" y="40.4" width="3.73" height="3.73"/><rect x="41.33" y="40.4" width="3.73" height="3.73"/><rect x="48.8" y="40.4" width="3.73" height="3.73"/></svg>