<svg id="Layer_1" data-name="Layer 1" xmlns="http://www.w3.org/2000/svg" viewBox="0 0 231 223"><defs><style>.cls-1{fill:#56b7ad;}.cls-2{fill:#fff;}</style></defs><path class="cls-1" d="M115.94,1.83A109.59,109.59,0,1,0,225.52,111.42,109.59,109.59,0,0,0,115.94,1.83Z"/><g id="BsJFEM"><path class="cls-2" d="M106,150.72V87.12h21v7.59c.51,0,.82.09.89,0,6.58-9,15.6-10.91,25.75-8.28s15.72,10.22,16.35,20c.94,14.64.24,29.37.24,44.31H149.9c-.06-1.24-.17-2.48-.17-3.72,0-9.89,0-19.78,0-29.68a33.91,33.91,0,0,0-.6-6c-1.22-6.45-5.28-9.67-11.32-9.12a11.59,11.59,0,0,0-10.58,11.27c-.09,11.42,0,22.85,0,34.27,0,.93-.09,1.85-.15,3Z"/><path class="cls-2" d="M72.87,87H93.64v63.71H72.87Z"/><path class="cls-2" d="M83.19,78c-6.88,0-11.7-4.49-11.78-10.87s5-11.07,12-11.1,11.94,4.56,11.93,11.11S90.35,78,83.19,78Z"/></g></svg>