<svg id="Layer_1" data-name="Layer 1" xmlns="http://www.w3.org/2000/svg" viewBox="0 0 265.45 131.15"><defs><style>.cls-1{fill:#fff;}</style></defs><path class="cls-1" d="M261,24.92a6.5,6.5,0,0,0-6.5-6.49A6.43,6.43,0,0,0,250.32,20l-39.21-9.9v0a6.5,6.5,0,0,0-13,0,2.28,2.28,0,0,0,0,.26L159.85,20a6.49,6.49,0,1,0-5.61,11.27l5.45,39.07a6.49,6.49,0,1,0,4.94,11.91l34.81,34.92a6.49,6.49,0,1,0,11.67,3.91,6.37,6.37,0,0,0-.94-3.35l35.37-35.48a6.49,6.49,0,1,0,4.94-11.91l5.45-39.07A6.51,6.51,0,0,0,261,24.92Zm-6.5-3.36a3.37,3.37,0,1,1-3.36,3.36A3.37,3.37,0,0,1,254.54,21.56ZM204.62,6.71a3.37,3.37,0,1,1-3.37,3.36A3.37,3.37,0,0,1,204.62,6.71Zm0,9.86a6.5,6.5,0,0,0,5.72-3.44l38.09,9.63a6.41,6.41,0,0,0-.38,2.16,6.5,6.5,0,0,0,4.73,6.25l-5.45,39.07a6.51,6.51,0,0,0-5.11,6.35,6.4,6.4,0,0,0,1,3.51L208,115.52a6.39,6.39,0,0,0-3.33-.94,6.54,6.54,0,0,0-2.73.61l-35-35.09a6.49,6.49,0,0,0-4.07-9.86l-5.45-39.07a6.5,6.5,0,0,0,4.73-6.25,6.41,6.41,0,0,0-.38-2.16L199,13.34A6.5,6.5,0,0,0,204.62,16.57Zm-52.36,8.35a3.37,3.37,0,1,1,3.37,3.37A3.37,3.37,0,0,1,152.26,24.92Zm5.83,51.67A3.37,3.37,0,1,1,161.45,80,3.37,3.37,0,0,1,158.09,76.59Zm46.53,47.85a3.36,3.36,0,1,1,3.36-3.36A3.36,3.36,0,0,1,204.62,124.44Zm47.46-47.85a3.37,3.37,0,1,1-3.36-3.37A3.37,3.37,0,0,1,252.08,76.59Z"/><path class="cls-1" d="M169,41.87l3.72,26.65a5,5,0,0,0,1.75,9.71,4.93,4.93,0,0,0,2.13-.48l23.85,23.93a5,5,0,1,0,9.25,2.68,5.1,5.1,0,0,0-.54-2.27l24.27-24.34a4.85,4.85,0,0,0,2.12.48,5,5,0,0,0,1.76-9.71L241,41.87a5,5,0,1,0-4.47-8.78L209.69,26.3a5,5,0,0,0-10,.17l-26.22,6.62a5,5,0,0,0-8.09,4A5,5,0,0,0,169,41.87Zm6.41-4.82a5.08,5.08,0,0,0-.15-1.18l25.29-6.39a5,5,0,0,0,8.37-.14l25.84,6.53a5,5,0,0,0,3.12,5.88L234.16,68.4a5,5,0,0,0-3,7.2l-24.2,24.28a5,5,0,0,0-2.25-.54,5.1,5.1,0,0,0-1.8.34l-24-24.08a4.93,4.93,0,0,0,.61-2.39,5,5,0,0,0-3.63-4.81l-3.71-26.65A5,5,0,0,0,175.41,37.05Zm-2.82,36.16a1.89,1.89,0,1,1,1.88,1.89A1.88,1.88,0,0,1,172.59,73.21Zm32.1,33a1.89,1.89,0,1,1,1.88-1.89A1.89,1.89,0,0,1,204.69,106.25ZM235.55,75.1a1.89,1.89,0,1,1,1.89-1.89A1.89,1.89,0,0,1,235.55,75.1Zm4.08-39.93a1.89,1.89,0,1,1-1.88,1.88A1.89,1.89,0,0,1,239.63,35.17Zm-34.94-10.4a1.89,1.89,0,1,1-1.89,1.88A1.88,1.88,0,0,1,204.69,24.77Zm-34.3,10.4a1.89,1.89,0,1,1-1.88,1.88A1.89,1.89,0,0,1,170.39,35.17Z"/><path class="cls-1" d="M49.71,26.19a1.4,1.4,0,0,1,1.4,1.39v25.5c0,5.55-3.11,8.88-8.6,8.88H22.38Q4.76,62,4.75,46.26v-8.1a1.38,1.38,0,0,1,1.38-1.38H9.52a1.38,1.38,0,0,1,1.39,1.38v8.1c0,3.61,1.05,6.16,3.16,7.6,1.66,1.16,4.21,1.77,7.59,1.77h15.2c2.83,0,4.77-.33,5.82-1.05,1.55-1,2.33-2.94,2.33-5.77V27.58a1.39,1.39,0,0,1,1.4-1.39ZM34.3,40.38H22.06a.78.78,0,0,1-.78-.78V37.45a.78.78,0,0,1,.78-.78h2.21A6.48,6.48,0,0,1,23.66,34a6,6,0,0,1,6-6.26,5.07,5.07,0,0,1,4.85,2.8.66.66,0,0,1-.23.85l-1.46,1a.69.69,0,0,1-1-.25,2.22,2.22,0,0,0-2-1.08c-1.67,0-2.5,1.06-2.5,3.16a3.83,3.83,0,0,0,.78,2.5h6.2a.78.78,0,0,1,.78.78V39.6A.78.78,0,0,1,34.3,40.38Z"/><path class="cls-1" d="M67.47,36.78a1.72,1.72,0,0,1,1.72,1.72V57c0,9.63-4.08,13.84-12.93,14.13a1,1,0,0,1-1-1V66.78a1,1,0,0,1,.9-1C60.72,65.52,63,63,63,58V38.5a1.71,1.71,0,0,1,1.71-1.72Z"/><path class="cls-1" d="M110.39,62H75.65A1.26,1.26,0,0,1,74.4,60.7V56.89a1.26,1.26,0,0,1,1.25-1.26H94.47c0-7.26-2.83-11.48-8.43-12.7a23.39,23.39,0,0,0-4.31-.48,1.33,1.33,0,0,1-1.29-1.33v-3a1.35,1.35,0,0,1,1.34-1.34c2.29,0,3.77.06,4.43.11a13.71,13.71,0,0,1,3.33.78c7.43,2.49,11.14,8.48,11.2,18h9.65Z"/><path class="cls-1" d="M140.11,54.08c0,7.38-5.05,12.81-12.42,12.81a11.78,11.78,0,0,1-10-4.93h-10V55.63h7.65l0-.27a12.61,12.61,0,0,1-.11-1.5c0-7.43,5.15-12.75,12.53-12.75S140.11,46.82,140.11,54.08Zm-6.38,0c0-4.21-2.55-7.37-6.21-7.37-3.49,0-6,2.94-6,7.09s2.61,7.32,6.32,7.32C131.29,61.12,133.73,58.3,133.73,54.08Z"/><path class="cls-1" d="M33.67,75.44v26a1.05,1.05,0,0,1-1.05,1.06h-4.2a1.06,1.06,0,0,1-1.06-1.08L27.75,82l.07-2.66-.22.94c-.34,1.5-.38,1.69-.68,2.81l-4.77,18.61a1.06,1.06,0,0,1-1,.77H17a1.06,1.06,0,0,1-1-.77L11.43,83.83,10.26,79.1c.12,2.11.12,2.56.23,5.07l.32,17.21a1.06,1.06,0,0,1-1.06,1.08H5.47a1.06,1.06,0,0,1-1.06-1.06v-26a1.06,1.06,0,0,1,1.06-1.06h7.81a1.05,1.05,0,0,1,1,.78l3.84,18.07.94,4.24c.38-1.84.41-2,.71-3.27l4-19a1.07,1.07,0,0,1,1-.78h7.77A1.05,1.05,0,0,1,33.67,75.44Z"/><path class="cls-1" d="M58.51,92.07c0,5-2.85,10.39-10.5,10.39-5.52,0-10.54-3.15-10.54-10.39,0-6,3.78-10.77,11.29-10.35C56.75,82.17,58.51,88.51,58.51,92.07ZM44.26,88.21a7,7,0,0,0-1,3.82c0,3.12,1.5,5.85,4.73,5.85s4.65-2.51,4.65-5.59a6.66,6.66,0,0,0-1.61-4.91,4.23,4.23,0,0,0-3.38-1.09A3.88,3.88,0,0,0,44.26,88.21Z"/><path class="cls-1" d="M79.82,75.75v25.09a1.09,1.09,0,0,1-1.09,1.1H75.67a1.1,1.1,0,0,1-1.1-1.1v-.74a6.94,6.94,0,0,1-5.29,2.36,7.92,7.92,0,0,1-5.51-2.25c-2.86-2.74-2.86-6.68-2.86-7.95,0-7.39,4.21-10.43,8.14-10.43a8,8,0,0,1,5.18,2V75.75a1.1,1.1,0,0,1,1.1-1.1h3.4A1.09,1.09,0,0,1,79.82,75.75ZM74.34,92.14c0-.9,0-3.33-1.23-4.84a3.08,3.08,0,0,0-2.25-1.16c-4.09,0-4.09,5.14-4.09,6,0,2.74.75,6.08,3.67,6.08a3.43,3.43,0,0,0,1.88-.6C74.34,96.23,74.34,93.23,74.34,92.14Z"/><path class="cls-1" d="M90.48,84.9a8.46,8.46,0,0,1,4.4-2.07,1.06,1.06,0,0,1,1.26,1v3a1.07,1.07,0,0,1-.89,1.05l-1,.16c-2.78.48-3.6.9-3.6,3.37v9.92a1.12,1.12,0,0,1-1.12,1.11H86a1.11,1.11,0,0,1-1.11-1.11V84A1.11,1.11,0,0,1,86,82.84h3.4A1.12,1.12,0,0,1,90.48,84Z"/><path class="cls-1" d="M116.2,96.2a1.09,1.09,0,0,1,.38,1.61,12.21,12.21,0,0,1-1.64,1.87,10.74,10.74,0,0,1-7.39,2.78c-5.82,0-9.91-3.71-9.91-10.13,0-4.72,2.33-10.8,10.06-10.8a9.5,9.5,0,0,1,7,2.81c2.12,2.28,2.58,5.32,2.72,7.55a1.16,1.16,0,0,1-1.16,1.23H103.53c0,2.44,1.35,4.88,4.47,4.88a4.79,4.79,0,0,0,4.47-2.58,1.08,1.08,0,0,1,1.41-.4Zm-4.64-6.68a4.63,4.63,0,0,0-1.09-2.78,4.07,4.07,0,0,0-2.81-1.09,4,4,0,0,0-2.93,1.28,5.18,5.18,0,0,0-1.16,2.59Z"/><path class="cls-1" d="M121.92,75.18h3.48a1.09,1.09,0,0,1,1.09,1.09V89.59l6-6.38a1.06,1.06,0,0,1,.76-.33h4a1,1,0,0,1,.75,1.77l-5,5.21,6.55,10.84a1.16,1.16,0,0,1-1,1.76h-3.95a1.15,1.15,0,0,1-1-.57L128.93,94l-2.47,2.33v5a1.09,1.09,0,0,1-1.1,1.09h-3.44a1.09,1.09,0,0,1-1.09-1.09V76.27A1.09,1.09,0,0,1,121.92,75.18Z"/></svg>