<svg id="Layer_1" data-name="Layer 1" xmlns="http://www.w3.org/2000/svg" viewBox="0 0 24 24"><defs><style>.cls-1{fill:#56b7ad;}</style></defs><path class="cls-1" d="M12,.19A11.81,11.81,0,1,0,23.81,12,11.81,11.81,0,0,0,12,.19ZM8,16.62a.63.63,0,0,1-.68.67H5.43a.63.63,0,0,1-.66-.66V11.26a.63.63,0,0,1,.68-.67H7.37a.63.63,0,0,1,.67.66v5.37Zm9.73-4.37a.78.78,0,0,1,.06,1,5.11,5.11,0,0,1-.39.42.83.83,0,0,1-.16.13,4.74,4.74,0,0,1,.24.58.84.84,0,0,1-.53,1l-.1,0c.05.11.11.21.15.32a.82.82,0,0,1-.55,1.17,1.55,1.55,0,0,1-.43.07H9.75a1,1,0,0,1-.64-.24.6.6,0,0,0-.42-.16.81.81,0,0,1-.22,0,.19.19,0,0,1-.21-.21V11.16a.21.21,0,0,1,.23-.22H9a.87.87,0,0,0,.69-.3,9.49,9.49,0,0,0,1.35-1.92,2.65,2.65,0,0,1,.95-1,3,3,0,0,0,1.17-1.41c.11-.27.19-.55.29-.82s.16-.42.26-.63a1,1,0,0,1,.2-.26.39.39,0,0,1,.53,0,1.58,1.58,0,0,1,.37.36,2.55,2.55,0,0,1,.1,2.88,7.58,7.58,0,0,1-.6.8,3.47,3.47,0,0,0-.29.38.29.29,0,0,0,.16.46,2.21,2.21,0,0,0,.58.11c.33,0,.66,0,1,0a2.73,2.73,0,0,1,1.53.33,1.17,1.17,0,0,1,.66.78,1.22,1.22,0,0,1-.44,1.27l-.08.07A3.55,3.55,0,0,1,17.77,12.25Z"/></svg>